<?xml version="1.0" encoding="UTF-8"?>
<svg version="1.1" xmlns="http://www.w3.org/2000/svg" width="1188" height="1068">
<path d="M0 0 C19.47 0 38.94 0 59 0 C59.94684178 25.09522698 60.13492835 50.13372907 60.10140657 75.2440784 C60.09493212 80.96026389 60.09445575 86.67645056 60.0932312 92.39263916 C60.09036724 102.26094048 60.08396641 112.12923416 60.07516479 121.99753189 C60.0625203 136.28005317 60.05651359 150.56257169 60.05223143 164.84509765 C60.05020391 171.5275092 60.04789945 178.20992065 60.04548645 184.89233208 C60.04524544 185.56078941 60.04500442 186.22924675 60.04475611 186.91796037 C60.03896821 202.76220275 60.0300099 218.60644307 60.02050781 234.45068359 C60.01988734 235.48822321 60.01988734 235.48822321 60.01925434 236.54672322 C60.01337672 246.36900549 60.00735901 256.19128767 60.001302 266.01356983 C59.99392643 277.97437852 59.98661677 289.93518725 59.97949219 301.89599609 C59.9790776 302.59003065 59.97866301 303.2840652 59.97823586 303.99913111 C59.96878071 319.85606833 59.96023487 335.71300534 59.95451355 351.56994438 C59.95415206 352.5702824 59.95415206 352.5702824 59.95378327 353.59082926 C59.95116209 360.90679374 59.94878024 368.22275826 59.94658184 375.53872287 C59.94210916 389.78693315 59.93408687 404.035133 59.92143703 418.28333841 C59.91300365 428.03396024 59.90811878 437.78457967 59.90601182 447.5352049 C59.90466918 453.15525718 59.90167574 458.77529597 59.89425278 464.39534378 C59.88747649 469.54514846 59.88537335 474.69493369 59.88688838 479.8447424 C59.88661827 481.70135893 59.88466367 483.55797619 59.8807956 485.4145887 C59.86244893 494.65367908 59.98038649 503.78516845 60.80355167 512.9938525 C61.00960995 516.14705604 60.94297455 519.21921644 60.8125 522.375 C60.65390079 557.78227387 77.0302851 589.25070045 96 618 C113.38940822 644.50243244 126.10221661 671.0980789 133.46264648 701.99487305 C133.94174274 704.05052155 133.94174274 704.05052155 135 706 C135.47308594 705.18917969 135.94617188 704.37835937 136.43359375 703.54296875 C141.05942267 695.79718504 146.06819093 688.8287149 152 682 C152.70898438 681.15695312 153.41796875 680.31390625 154.1484375 679.4453125 C178.01031016 651.79310628 210.63489955 641.40271039 245.8125 638.3125 C273.03713131 636.78051606 298.98966418 639.40845623 325.51708984 645.58618164 C338.14552355 648.51717017 349.06869903 646.54991561 361.57226562 643.9284668 C409.36338323 633.95068667 468.47841064 634.62014403 513.953125 653.20703125 C522.88440377 656.81781967 530.75887427 657.6250943 539.8125 653.875 C541.8798751 652.92722934 543.94213969 651.96825614 546 651 C586.39969443 633.33078241 634.93625256 633.97442643 676.8125 646.25 C689.22917567 649.59756777 699.46751269 648.11219521 711.62548828 644.99926758 C756.7805035 633.64024766 811.91841393 636.40744698 857.9375 641.5625 C873.29879364 643.28262086 888.19413874 643.77381391 903.5625 642 C934.04636998 638.49582275 969.43398447 639.13215025 994.875 658.75 C1004.94268609 668.19622399 1010.23340834 682.56846104 1013.25 695.75 C1013.40106201 696.40299072 1013.55212402 697.05598145 1013.70776367 697.72875977 C1016.52415412 711.18484747 1017.27842977 724.99240264 1017.49015617 738.70113945 C1017.52856182 741.13581176 1017.57872659 743.57001361 1017.63172913 746.00440979 C1017.78027577 752.90898651 1017.90993255 759.81385036 1018.02905273 766.71899414 C1018.10336094 770.9805139 1018.19177157 775.24155309 1018.2888813 779.50261116 C1018.32270526 781.11606318 1018.35097818 782.72964165 1018.37354851 784.34329033 C1018.40501631 786.58278612 1018.45427785 788.8212355 1018.50756836 791.06030273 C1018.54182167 792.96742287 1018.54182167 792.96742287 1018.57676697 794.91307068 C1018.74960496 797.96380189 1018.74960496 797.96380189 1020.36280823 799.89466858 C1022.81921211 801.55308175 1025.06790197 801.66806437 1028 802 C1029.24910156 802.15855469 1030.49820312 802.31710937 1031.78515625 802.48046875 C1032.46336426 802.56345215 1033.14157227 802.64643555 1033.84033203 802.73193359 C1053.08330523 805.12044643 1076.49215665 808.54292356 1090 824 C1102.12427251 840.02232022 1107.33126652 860.11244796 1108 880 C1108.03996094 881.10859375 1108.07992188 882.2171875 1108.12109375 883.359375 C1108.54950679 907.24970206 1104.8979638 933.22758117 1088.953125 952.1171875 C1055.99310617 983.89064565 988.9593528 974.63694722 947.50439453 973.9296875 C935.66420906 973.6959309 923.90396827 973.16821975 912.125 971.9375 C893.60444346 970.03038464 874.73627851 970.28162004 856.23242188 972.21337891 C807.56734474 977.20944718 750.95385937 978.77341884 703.54589844 965.98168945 C691.70772829 962.86705315 682.83005256 964.22042073 671.0625 967.3125 C662.58093357 969.44893897 654.14881136 971.5391674 645.5 972.875 C644.81558838 972.98239502 644.13117676 973.08979004 643.42602539 973.20043945 C632.18874878 974.82361672 620.8404348 975.24937804 609.5 975.3125 C608.48870026 975.31842163 608.48870026 975.31842163 607.45697021 975.32446289 C595.1004169 975.35747206 583.02065948 974.19323163 570.76470947 972.71539307 C555.13339276 970.84122906 539.53303772 969.89788942 523.8203125 971.5 C516.39126465 972.22019648 508.95739265 972.28423356 501.5 972.3125 C500.35448166 972.31842163 500.35448166 972.31842163 499.18582153 972.32446289 C488.76648005 972.34940479 478.73902548 971.72100971 468.4375 970 C453.05847647 967.43215925 440.1552587 967.57528452 424.75 970 C399.45515137 973.95818975 374.39972939 972.98261948 349.62890625 966.55078125 C338.94745046 964.92959151 329.09020996 966.50346657 318.69070435 968.87838745 C274.69829155 978.85106327 221.03146353 980.7514214 180.99609375 956.625 C173.83187823 952.06707973 167.3691878 946.59278248 161 941 C160.23300781 940.33613281 159.46601563 939.67226563 158.67578125 938.98828125 C154.02154708 934.64628082 150.20338937 929.57999863 146.3125 924.5625 C145.76505127 923.85834961 145.21760254 923.15419922 144.65356445 922.42871094 C144.124646 921.73165039 143.59572754 921.03458984 143.05078125 920.31640625 C142.58325439 919.70224854 142.11572754 919.08809082 141.6340332 918.45532227 C139.18288103 914.77218505 137.10986987 910.88611459 135 907 C134.70943439 913.06053406 134.42492 919.12131452 134.14550781 925.18237305 C134.05008048 927.23518138 133.95312827 929.28791952 133.85449219 931.34057617 C133.31311026 942.62949423 132.86271348 953.88178967 133.03686523 965.18586731 C133.07446932 968.40967909 133.02821663 970.91535011 132 974 C131.79877882 976.91169085 131.64712005 979.80734621 131.53515625 982.72265625 C131.49769287 983.60370529 131.46022949 984.48475433 131.42163086 985.39250183 C131.34094537 987.29248126 131.26199982 989.19253521 131.18460083 991.09265137 C130.97915664 996.08965382 130.7541104 1001.08578044 130.53125 1006.08203125 C130.48662125 1007.08817474 130.44199249 1008.09431824 130.39601135 1009.13095093 C129.59562387 1027.15308333 129.59562387 1027.15308333 129.17453003 1035.08297729 C129.10057498 1036.51350684 129.03124571 1037.94428395 128.96682739 1039.37527466 C128.11857536 1058.07916285 128.11857536 1058.07916285 121 1065 C115.73994853 1067.93349025 111.8686646 1068.55892044 106 1068 C101.0146497 1066.20527389 97.15114232 1063.24365099 94 1059 C93.04533574 1056.27621288 92.83883144 1053.64742291 92.67578125 1050.77734375 C92.61014481 1049.98649887 92.54450836 1049.19565399 92.47688293 1048.38084412 C92.28431073 1045.92148369 92.13512693 1043.46313361 92 1041 C91.9574408 1040.27677551 91.91488159 1039.55355103 91.87103271 1038.80841064 C91.61499874 1034.27625642 91.43921746 1029.74296993 91.28164673 1025.20645142 C90.43373356 1001.39424625 89.12057711 977.60280416 87.8125 953.8125 C87.73505617 952.40241732 87.73505617 952.40241732 87.65604782 950.96384811 C85.65130969 914.50978773 83.46971092 878.06652682 81.25 841.625 C81.13371435 839.71418829 81.13371435 839.71418829 81.0150795 837.76477432 C80.56630712 830.39288654 80.11595506 823.02109801 79.66325569 815.6494503 C79.52517955 813.40028273 79.38737796 811.15109828 79.24987602 808.90189552 C78.89282275 803.06761057 78.52993325 797.23377919 78.15361023 791.40070343 C78.05612834 789.87720394 77.96071744 788.35356938 77.86811829 786.82976532 C77.75671301 785.00117951 77.63610978 783.17316023 77.51464844 781.34521484 C77.45452576 780.4033432 77.39440308 779.46147156 77.3324585 778.49105835 C76.76096486 774.20894795 75.51200255 771.53038196 73 768 C70.12752592 766.42376462 70.12752592 766.42376462 67 767 C62.1330197 770.42900885 61.01216209 774.38637442 60 780 C59.66656023 783.01870894 59.53788293 786.02793901 59.4375 789.0625 C59.40213135 789.9589624 59.3667627 790.8554248 59.33032227 791.77905273 C59.25387683 793.77181965 59.18174504 795.7647554 59.11328125 797.7578125 C58.99397515 801.17243525 58.85664849 804.58608053 58.71875 808 C58.0995349 824.20792872 57.90761343 840.3789984 58.03686523 856.59790039 C58.04113022 857.34489197 58.0453952 858.09188354 58.04978943 858.86151123 C58.0617632 860.89443653 58.07952016 862.92732541 58.09765625 864.96020508 C58 868 58 868 57 870 C56.82359546 871.73220177 56.70356451 873.47028115 56.61108398 875.20898438 C56.55109726 876.29771851 56.49111053 877.38645264 56.42930603 878.50817871 C56.36884598 879.69141724 56.30838593 880.87465576 56.24609375 882.09375 C56.18092056 883.31018188 56.11574738 884.52661377 56.04859924 885.77990723 C55.91121754 888.36227401 55.77602291 890.94475792 55.64282227 893.52734375 C55.43977238 897.45603302 55.22925416 901.38426711 55.01757812 905.3125 C54.88496845 907.82289303 54.75279338 910.33330906 54.62109375 912.84375 C54.55860947 914.01079468 54.49612518 915.17783936 54.43174744 916.38024902 C54.14010937 922.09632417 53.93840264 927.77054615 54.07582092 933.49377441 C53.99115161 936.29247929 53.62115567 939.02111525 53.25546741 941.79485321 C52.80249087 945.70486175 52.64358308 949.62827133 52.45922852 953.55859375 C52.39067657 954.94093956 52.39067657 954.94093956 52.32073975 956.35121155 C52.2223565 958.3410119 52.12529287 960.33087785 52.02942085 962.32080078 C51.87661863 965.48486969 51.71953624 968.64870025 51.56126404 971.8125 C51.11205334 980.80454865 50.66934145 989.79690853 50.23217773 998.78955078 C49.96380545 1004.30390161 49.68950472 1009.81793303 49.411726 1015.33181763 C49.30783592 1017.41737866 49.20615998 1019.50305136 49.10687447 1021.58883667 C48.65459714 1031.08283393 48.18650453 1040.57789231 47.17163086 1050.03125 C46.97977455 1051.84979492 46.97977455 1051.84979492 46.78404236 1053.70507812 C45.35729797 1059.70094206 41.99170796 1063.54420218 37 1067 C32.0000025 1068.66666583 27.71345913 1068.57623861 22.875 1066.5 C18.44810744 1064.06735807 15.85322733 1060.66886027 14 1056 C12.93057773 1049.88384296 12.62199496 1043.74790067 12.28125 1037.5546875 C12.15235722 1035.32161381 12.02345055 1033.08854091 11.89453125 1030.85546875 C11.69611467 1027.3553609 11.498887 1023.85518852 11.30224609 1020.35498047 C11.11066221 1016.96304241 10.91486224 1013.57136629 10.71875 1010.1796875 C10.661427 1009.13376434 10.604104 1008.08784119 10.54504395 1007.01022339 C10.4599054 1005.54312424 10.4599054 1005.54312424 10.37304688 1004.04638672 C10.32498901 1003.19035858 10.27693115 1002.33433044 10.22741699 1001.45236206 C10.04746704 998.98738064 10.04746704 998.98738064 9.47816467 996.56040955 C8.93281547 993.64024964 8.9268645 990.95647736 8.97631836 987.98706055 C9.02692732 981.37076687 8.75889472 974.81100367 8.37890625 968.20703125 C8.31468979 967.05377853 8.25047333 965.90052582 8.18431091 964.71232605 C8.0490944 962.30315018 7.9120384 959.89407689 7.77319336 957.48510742 C7.56086523 953.78400429 7.35726961 950.08248608 7.15429688 946.38085938 C7.02135466 944.03122045 6.88790964 941.6816099 6.75390625 939.33203125 C6.6934462 938.22382523 6.63298615 937.1156192 6.57069397 935.97383118 C6.51070724 934.95484238 6.45072052 933.93585358 6.38891602 932.88598633 C6.33784195 931.98809891 6.28676788 931.09021149 6.23414612 930.16511536 C6.12224953 927.95412059 6.12224953 927.95412059 5 926 C4.94057723 922.27122146 4.97893204 918.55621346 5.0390625 914.828125 C5.04679687 914.044375 5.05453125 913.260625 5.0625 912.453125 C5.07410156 911.74317383 5.08570312 911.03322266 5.09765625 910.30175781 C5.04618259 907.91832016 5.04618259 907.91832016 4.52734375 905.27832031 C3.87372297 901.21497781 3.68126712 897.20130416 3.5 893.09375 C3.45939453 892.25082397 3.41878906 891.40789795 3.37695312 890.53942871 C3.20439701 886.95507314 3.04008092 883.37035088 2.875 879.78564453 C2.75285435 877.1590359 2.6265191 874.53265103 2.5 871.90625 C2.44682617 870.70131897 2.44682617 870.70131897 2.39257812 869.4720459 C2.24013636 866.31439526 2.05753404 863.30395741 1.46875 860.19335938 C0.88833763 856.23930011 0.9810245 852.41345023 1.01409912 848.42224121 C0.98800769 842.08914012 0.56904733 835.77351613 0.1953125 829.453125 C0.11033722 827.9872893 0.02544922 826.52144854 -0.05935669 825.05560303 C-0.23673834 822.00647722 -0.41704073 818.95754004 -0.59912109 815.90869141 C-0.83083052 812.02036225 -1.05223765 808.13151951 -1.27113152 804.24245071 C-1.44267188 801.22396572 -1.62114625 798.20591912 -1.80151749 795.18795013 C-1.88609253 793.75450653 -1.96822432 792.3209164 -2.0477562 790.88718414 C-2.10712424 778.70878294 -2.10712424 778.70878294 -6.75 767.9375 C-9.96867409 766.5963858 -11.70911001 766.90303667 -15 768 C-20.25277276 773.25277276 -20.18892919 778.46175773 -20.5 785.56640625 C-20.56043236 786.8475103 -20.56043236 786.8475103 -20.62208557 788.15449524 C-20.75258581 790.95697639 -20.87659221 793.7596982 -21 796.5625 C-21.08846029 798.5086263 -21.17692057 800.4547526 -21.26538086 802.40087891 C-21.87298498 816.00294963 -22.32661512 829.60534246 -22.67358398 843.21630859 C-22.89592371 851.87397088 -23.23098154 860.51639038 -23.69555664 869.16430664 C-24.02540548 875.6033558 -24.04803798 882.01128553 -23.9375 888.45703125 C-23.99293051 891.5992485 -24.31696445 894.58938288 -24.74169922 897.69848633 C-25.29085628 902.5915899 -25.38613649 907.51956005 -25.5625 912.4375 C-25.62727539 914.02981445 -25.62727539 914.02981445 -25.69335938 915.65429688 C-25.92814329 921.91147445 -26.00780776 928.15014466 -25.97265625 934.41015625 C-25.93885978 942.30204453 -26.33982154 950.12544222 -26.875 958 C-27.95956874 974.83673215 -28.64812507 991.68477706 -29.30224609 1008.54296875 C-29.67183221 1018.0562338 -30.05149081 1027.56856401 -30.5078125 1037.078125 C-30.5450795 1037.88768646 -30.5823465 1038.69724792 -30.6207428 1039.53134155 C-31.47221525 1056.70446737 -31.47221525 1056.70446737 -37 1063 C-42.47560535 1067.13464078 -47.11568054 1068.88354902 -54 1068 C-59.23721469 1066.25741862 -63.09986106 1063.79638363 -66 1059 C-67.80552407 1053.66950463 -68.42825313 1048.7096614 -68.74609375 1043.14453125 C-68.80173996 1042.27332642 -68.85738617 1041.40212158 -68.91471863 1040.5045166 C-69.09703441 1037.60761401 -69.26747912 1034.71014824 -69.4375 1031.8125 C-69.56332056 1029.76780263 -69.68946746 1027.72312531 -69.81591797 1025.6784668 C-70.56568582 1013.35226222 -71.2143652 1001.02129401 -71.82421875 988.6875 C-71.87492555 987.66361962 -71.87492555 987.66361962 -71.92665672 986.61905479 C-72.29433959 979.18181529 -72.65244137 971.74421807 -72.99780273 964.3059082 C-73.05752762 963.04983765 -73.1172525 961.79376709 -73.17878723 960.49963379 C-73.29121403 958.13341861 -73.40042387 955.76704766 -73.50590515 953.4005127 C-73.58153435 951.82421082 -73.58153435 951.82421082 -73.65869141 950.21606445 C-73.70071686 949.30081497 -73.74274231 948.38556549 -73.78604126 947.44258118 C-73.98407236 945.18183202 -74.43769192 943.19060587 -75 941 C-75.11874224 938.2393349 -75.18596011 935.49991135 -75.2109375 932.73828125 C-75.23721929 930.93838914 -75.26393835 929.13850337 -75.29101562 927.33862305 C-75.30430908 926.36388031 -75.31760254 925.38913757 -75.33129883 924.38485718 C-75.68329159 899.63843866 -76.55956588 874.9170905 -77.5 850.1875 C-77.53304985 849.31755527 -77.5660997 848.44761055 -77.60015106 847.55130386 C-77.82602427 841.61098092 -78.05341452 835.67071671 -78.28125 829.73046875 C-78.34402375 828.0918479 -78.40679336 826.45322689 -78.46955872 824.81460571 C-78.53072736 823.2187702 -78.59189979 821.62293483 -78.65307617 820.02709961 C-78.68262422 819.25561207 -78.71217226 818.48412453 -78.7426157 817.68925858 C-78.88001448 814.10650592 -79.01836015 810.52379699 -79.15957642 806.94119263 C-79.73166758 792.37326236 -80.18663027 777.8227235 -80.18530273 763.24243164 C-80.18752294 760.53451533 -80.20593457 757.82698779 -80.22460938 755.11914062 C-80.27822229 738.60821402 -79.26740946 722.08055937 -75.9375 705.875 C-75.72762451 704.85059814 -75.51774902 703.82619629 -75.30151367 702.77075195 C-68.09577624 669.54192229 -52.44868724 642.47718592 -34.0625 614.375 C-29.7190445 607.7241234 -25.53841724 601.12231542 -22 594 C-21.44965088 592.93289795 -21.44965088 592.93289795 -20.88818359 591.84423828 C-14.2421244 578.91774392 -9.32512633 566.15421486 -6 552 C-5.83419434 551.29568848 -5.66838867 550.59137695 -5.49755859 549.86572266 C-1.39037195 531.77380814 -0.69606467 513.19017384 -0.76622009 494.71098328 C-0.76606353 492.76208639 -0.76501973 490.81318942 -0.76317984 488.8642934 C-0.76067664 483.57318243 -0.7704997 478.28215887 -0.7825278 472.99106371 C-0.79331207 467.25851064 -0.79232978 461.52595752 -0.7928009 455.793396 C-0.79515401 445.87365637 -0.80469374 435.95394506 -0.81910515 426.03421593 C-0.83990105 411.64875285 -0.84848844 397.26330171 -0.8540265 382.8778256 C-0.86326804 359.47558989 -0.88067793 336.0733682 -0.90405273 312.67114258 C-0.90546029 311.25884554 -0.90686767 309.8465485 -0.9082749 308.43425146 C-0.9089725 307.73455311 -0.9096701 307.03485476 -0.91038884 306.31395343 C-0.91391682 302.77517957 -0.9174411 299.2364057 -0.92095947 295.69763184 C-0.92165793 294.99614974 -0.92235639 294.29466765 -0.92307602 293.57192852 C-0.93922052 277.31659 -0.9528612 261.06124974 -0.96557617 244.8059082 C-0.96612229 244.11031623 -0.9666684 243.41472425 -0.96723107 242.69805373 C-0.97971611 226.76675816 -0.99097245 210.83546234 -0.99983311 194.90416431 C-1.0002085 194.2314091 -1.00058389 193.55865389 -1.00097066 192.86551216 C-1.00434004 186.80766673 -1.00765906 180.74982128 -1.0107208 174.69197569 C-1.01866976 159.03794275 -1.03034545 143.38392473 -1.04920948 127.72990093 C-1.06089629 117.88647775 -1.06900872 108.04305572 -1.07447498 98.19962712 C-1.07776215 92.54604966 -1.08266052 86.89248691 -1.09228897 81.2389164 C-1.13727273 54.13605443 -0.7881809 27.09373379 0 0 Z " fill="#FEFEFE" transform="translate(80,0)"/>
<path d="M0 0 C19.47 0 38.94 0 59 0 C59.94684178 25.09522698 60.13492835 50.13372907 60.10140657 75.2440784 C60.09493212 80.96026389 60.09445575 86.67645056 60.0932312 92.39263916 C60.09036724 102.26094048 60.08396641 112.12923416 60.07516479 121.99753189 C60.0625203 136.28005317 60.05651359 150.56257169 60.05223143 164.84509765 C60.05020391 171.5275092 60.04789945 178.20992065 60.04548645 184.89233208 C60.04524544 185.56078941 60.04500442 186.22924675 60.04475611 186.91796037 C60.03896821 202.76220275 60.0300099 218.60644307 60.02050781 234.45068359 C60.01988734 235.48822321 60.01988734 235.48822321 60.01925434 236.54672322 C60.01337672 246.36900549 60.00735901 256.19128767 60.001302 266.01356983 C59.99392643 277.97437852 59.98661677 289.93518725 59.97949219 301.89599609 C59.9790776 302.59003065 59.97866301 303.2840652 59.97823586 303.99913111 C59.96878071 319.85606833 59.96023487 335.71300534 59.95451355 351.56994438 C59.95415206 352.5702824 59.95415206 352.5702824 59.95378327 353.59082926 C59.95116209 360.90679374 59.94878024 368.22275826 59.94658184 375.53872287 C59.94210916 389.78693315 59.93408687 404.035133 59.92143703 418.28333841 C59.91300365 428.03396024 59.90811878 437.78457967 59.90601182 447.5352049 C59.90466918 453.15525718 59.90167574 458.77529597 59.89425278 464.39534378 C59.88747649 469.54514846 59.88537335 474.69493369 59.88688838 479.8447424 C59.88661827 481.70135893 59.88466367 483.55797619 59.8807956 485.4145887 C59.86244893 494.65367908 59.98038649 503.78516845 60.80355167 512.9938525 C61.00960995 516.14705604 60.94297455 519.21921644 60.8125 522.375 C60.65390079 557.78227387 77.0302851 589.25070045 96 618 C125.31396164 662.67611998 139.15660508 708.63954485 139.16796875 762.08203125 C139.16825451 762.77715191 139.16854027 763.47227257 139.16883469 764.18845749 C139.14724935 788.15788017 138.15384222 812.1194632 137.3315559 836.07152957 C137.12554344 842.08220231 136.92674253 848.09309871 136.72865677 854.10403824 C135.30467254 897.26016078 135.30467254 897.26016078 134.42089844 917.89355469 C134.3740711 918.98920935 134.32724377 920.08486401 134.27899742 921.21372032 C134.06099184 926.28038223 133.8370841 931.34668118 133.60305786 936.41262817 C133.17312624 945.97304513 132.90416716 955.49558633 133.04357719 965.06696892 C133.07798423 968.32413725 133.0384923 970.8845231 132 974 C131.79877882 976.91169085 131.64712005 979.80734621 131.53515625 982.72265625 C131.49769287 983.60370529 131.46022949 984.48475433 131.42163086 985.39250183 C131.34094537 987.29248126 131.26199982 989.19253521 131.18460083 991.09265137 C130.97915664 996.08965382 130.7541104 1001.08578044 130.53125 1006.08203125 C130.48662125 1007.08817474 130.44199249 1008.09431824 130.39601135 1009.13095093 C129.59562387 1027.15308333 129.59562387 1027.15308333 129.17453003 1035.08297729 C129.10057498 1036.51350684 129.03124571 1037.94428395 128.96682739 1039.37527466 C128.11857536 1058.07916285 128.11857536 1058.07916285 121 1065 C115.73994853 1067.93349025 111.8686646 1068.55892044 106 1068 C101.0146497 1066.20527389 97.15114232 1063.24365099 94 1059 C93.04533574 1056.27621288 92.83883144 1053.64742291 92.67578125 1050.77734375 C92.61014481 1049.98649887 92.54450836 1049.19565399 92.47688293 1048.38084412 C92.28431073 1045.92148369 92.13512693 1043.46313361 92 1041 C91.9574408 1040.27677551 91.91488159 1039.55355103 91.87103271 1038.80841064 C91.61499874 1034.27625642 91.43921746 1029.74296993 91.28164673 1025.20645142 C90.43373356 1001.39424625 89.12057711 977.60280416 87.8125 953.8125 C87.73505617 952.40241732 87.73505617 952.40241732 87.65604782 950.96384811 C85.65130969 914.50978773 83.46971092 878.06652682 81.25 841.625 C81.13371435 839.71418829 81.13371435 839.71418829 81.0150795 837.76477432 C80.56630712 830.39288654 80.11595506 823.02109801 79.66325569 815.6494503 C79.52517955 813.40028273 79.38737796 811.15109828 79.24987602 808.90189552 C78.89282275 803.06761057 78.52993325 797.23377919 78.15361023 791.40070343 C78.05612834 789.87720394 77.96071744 788.35356938 77.86811829 786.82976532 C77.75671301 785.00117951 77.63610978 783.17316023 77.51464844 781.34521484 C77.45452576 780.4033432 77.39440308 779.46147156 77.3324585 778.49105835 C76.76096486 774.20894795 75.51200255 771.53038196 73 768 C70.12752592 766.42376462 70.12752592 766.42376462 67 767 C62.1330197 770.42900885 61.01216209 774.38637442 60 780 C59.66656023 783.01870894 59.53788293 786.02793901 59.4375 789.0625 C59.40213135 789.9589624 59.3667627 790.8554248 59.33032227 791.77905273 C59.25387683 793.77181965 59.18174504 795.7647554 59.11328125 797.7578125 C58.99397515 801.17243525 58.85664849 804.58608053 58.71875 808 C58.0995349 824.20792872 57.90761343 840.3789984 58.03686523 856.59790039 C58.04113022 857.34489197 58.0453952 858.09188354 58.04978943 858.86151123 C58.0617632 860.89443653 58.07952016 862.92732541 58.09765625 864.96020508 C58 868 58 868 57 870 C56.82359546 871.73220177 56.70356451 873.47028115 56.61108398 875.20898438 C56.55109726 876.29771851 56.49111053 877.38645264 56.42930603 878.50817871 C56.36884598 879.69141724 56.30838593 880.87465576 56.24609375 882.09375 C56.18092056 883.31018188 56.11574738 884.52661377 56.04859924 885.77990723 C55.91121754 888.36227401 55.77602291 890.94475792 55.64282227 893.52734375 C55.43977238 897.45603302 55.22925416 901.38426711 55.01757812 905.3125 C54.88496845 907.82289303 54.75279338 910.33330906 54.62109375 912.84375 C54.55860947 914.01079468 54.49612518 915.17783936 54.43174744 916.38024902 C54.14010937 922.09632417 53.93840264 927.77054615 54.07582092 933.49377441 C53.99115161 936.29247929 53.62115567 939.02111525 53.25546741 941.79485321 C52.80249087 945.70486175 52.64358308 949.62827133 52.45922852 953.55859375 C52.39067657 954.94093956 52.39067657 954.94093956 52.32073975 956.35121155 C52.2223565 958.3410119 52.12529287 960.33087785 52.02942085 962.32080078 C51.87661863 965.48486969 51.71953624 968.64870025 51.56126404 971.8125 C51.11205334 980.80454865 50.66934145 989.79690853 50.23217773 998.78955078 C49.96380545 1004.30390161 49.68950472 1009.81793303 49.411726 1015.33181763 C49.30783592 1017.41737866 49.20615998 1019.50305136 49.10687447 1021.58883667 C48.65459714 1031.08283393 48.18650453 1040.57789231 47.17163086 1050.03125 C46.97977455 1051.84979492 46.97977455 1051.84979492 46.78404236 1053.70507812 C45.35729797 1059.70094206 41.99170796 1063.54420218 37 1067 C32.0000025 1068.66666583 27.71345913 1068.57623861 22.875 1066.5 C18.44810744 1064.06735807 15.85322733 1060.66886027 14 1056 C12.93057773 1049.88384296 12.62199496 1043.74790067 12.28125 1037.5546875 C12.15235722 1035.32161381 12.02345055 1033.08854091 11.89453125 1030.85546875 C11.69611467 1027.3553609 11.498887 1023.85518852 11.30224609 1020.35498047 C11.11066221 1016.96304241 10.91486224 1013.57136629 10.71875 1010.1796875 C10.661427 1009.13376434 10.604104 1008.08784119 10.54504395 1007.01022339 C10.4599054 1005.54312424 10.4599054 1005.54312424 10.37304688 1004.04638672 C10.32498901 1003.19035858 10.27693115 1002.33433044 10.22741699 1001.45236206 C10.04746704 998.98738064 10.04746704 998.98738064 9.47816467 996.56040955 C8.93281547 993.64024964 8.9268645 990.95647736 8.97631836 987.98706055 C9.02692732 981.37076687 8.75889472 974.81100367 8.37890625 968.20703125 C8.31468979 967.05377853 8.25047333 965.90052582 8.18431091 964.71232605 C8.0490944 962.30315018 7.9120384 959.89407689 7.77319336 957.48510742 C7.56086523 953.78400429 7.35726961 950.08248608 7.15429688 946.38085938 C7.02135466 944.03122045 6.88790964 941.6816099 6.75390625 939.33203125 C6.6934462 938.22382523 6.63298615 937.1156192 6.57069397 935.97383118 C6.51070724 934.95484238 6.45072052 933.93585358 6.38891602 932.88598633 C6.33784195 931.98809891 6.28676788 931.09021149 6.23414612 930.16511536 C6.12224953 927.95412059 6.12224953 927.95412059 5 926 C4.94057723 922.27122146 4.97893204 918.55621346 5.0390625 914.828125 C5.04679687 914.044375 5.05453125 913.260625 5.0625 912.453125 C5.07410156 911.74317383 5.08570312 911.03322266 5.09765625 910.30175781 C5.04618259 907.91832016 5.04618259 907.91832016 4.52734375 905.27832031 C3.87372297 901.21497781 3.68126712 897.20130416 3.5 893.09375 C3.45939453 892.25082397 3.41878906 891.40789795 3.37695312 890.53942871 C3.20439701 886.95507314 3.04008092 883.37035088 2.875 879.78564453 C2.75285435 877.1590359 2.6265191 874.53265103 2.5 871.90625 C2.44682617 870.70131897 2.44682617 870.70131897 2.39257812 869.4720459 C2.24013636 866.31439526 2.05753404 863.30395741 1.46875 860.19335938 C0.88833763 856.23930011 0.9810245 852.41345023 1.01409912 848.42224121 C0.98800769 842.08914012 0.56904733 835.77351613 0.1953125 829.453125 C0.11033722 827.9872893 0.02544922 826.52144854 -0.05935669 825.05560303 C-0.23673834 822.00647722 -0.41704073 818.95754004 -0.59912109 815.90869141 C-0.83083052 812.02036225 -1.05223765 808.13151951 -1.27113152 804.24245071 C-1.44267188 801.22396572 -1.62114625 798.20591912 -1.80151749 795.18795013 C-1.88609253 793.75450653 -1.96822432 792.3209164 -2.0477562 790.88718414 C-2.10712424 778.70878294 -2.10712424 778.70878294 -6.75 767.9375 C-9.96867409 766.5963858 -11.70911001 766.90303667 -15 768 C-20.25277276 773.25277276 -20.18892919 778.46175773 -20.5 785.56640625 C-20.56043236 786.8475103 -20.56043236 786.8475103 -20.62208557 788.15449524 C-20.75258581 790.95697639 -20.87659221 793.7596982 -21 796.5625 C-21.08846029 798.5086263 -21.17692057 800.4547526 -21.26538086 802.40087891 C-21.87298498 816.00294963 -22.32661512 829.60534246 -22.67358398 843.21630859 C-22.89592371 851.87397088 -23.23098154 860.51639038 -23.69555664 869.16430664 C-24.02540548 875.6033558 -24.04803798 882.01128553 -23.9375 888.45703125 C-23.99293051 891.5992485 -24.31696445 894.58938288 -24.74169922 897.69848633 C-25.29085628 902.5915899 -25.38613649 907.51956005 -25.5625 912.4375 C-25.62727539 914.02981445 -25.62727539 914.02981445 -25.69335938 915.65429688 C-25.92814329 921.91147445 -26.00780776 928.15014466 -25.97265625 934.41015625 C-25.93885978 942.30204453 -26.33982154 950.12544222 -26.875 958 C-27.95956874 974.83673215 -28.64812507 991.68477706 -29.30224609 1008.54296875 C-29.67183221 1018.0562338 -30.05149081 1027.56856401 -30.5078125 1037.078125 C-30.5450795 1037.88768646 -30.5823465 1038.69724792 -30.6207428 1039.53134155 C-31.47221525 1056.70446737 -31.47221525 1056.70446737 -37 1063 C-42.47560535 1067.13464078 -47.11568054 1068.88354902 -54 1068 C-59.23721469 1066.25741862 -63.09986106 1063.79638363 -66 1059 C-67.80552407 1053.66950463 -68.42825313 1048.7096614 -68.74609375 1043.14453125 C-68.80173996 1042.27332642 -68.85738617 1041.40212158 -68.91471863 1040.5045166 C-69.09703441 1037.60761401 -69.26747912 1034.71014824 -69.4375 1031.8125 C-69.56332056 1029.76780263 -69.68946746 1027.72312531 -69.81591797 1025.6784668 C-70.56568582 1013.35226222 -71.2143652 1001.02129401 -71.82421875 988.6875 C-71.87492555 987.66361962 -71.87492555 987.66361962 -71.92665672 986.61905479 C-72.29433959 979.18181529 -72.65244137 971.74421807 -72.99780273 964.3059082 C-73.05752762 963.04983765 -73.1172525 961.79376709 -73.17878723 960.49963379 C-73.29121403 958.13341861 -73.40042387 955.76704766 -73.50590515 953.4005127 C-73.58153435 951.82421082 -73.58153435 951.82421082 -73.65869141 950.21606445 C-73.70071686 949.30081497 -73.74274231 948.38556549 -73.78604126 947.44258118 C-73.98407236 945.18183202 -74.43769192 943.19060587 -75 941 C-75.11874224 938.2393349 -75.18596011 935.49991135 -75.2109375 932.73828125 C-75.23721929 930.93838914 -75.26393835 929.13850337 -75.29101562 927.33862305 C-75.30430908 926.36388031 -75.31760254 925.38913757 -75.33129883 924.38485718 C-75.68329159 899.63843866 -76.55956588 874.9170905 -77.5 850.1875 C-77.53304985 849.31755527 -77.5660997 848.44761055 -77.60015106 847.55130386 C-77.82602427 841.61098092 -78.05341452 835.67071671 -78.28125 829.73046875 C-78.34402375 828.0918479 -78.40679336 826.45322689 -78.46955872 824.81460571 C-78.53072736 823.2187702 -78.59189979 821.62293483 -78.65307617 820.02709961 C-78.68262422 819.25561207 -78.71217226 818.48412453 -78.7426157 817.68925858 C-78.88001448 814.10650592 -79.01836015 810.52379699 -79.15957642 806.94119263 C-79.73166758 792.37326236 -80.18663027 777.8227235 -80.18530273 763.24243164 C-80.18752294 760.53451533 -80.20593457 757.82698779 -80.22460938 755.11914062 C-80.27822229 738.60821402 -79.26740946 722.08055937 -75.9375 705.875 C-75.72762451 704.85059814 -75.51774902 703.82619629 -75.30151367 702.77075195 C-68.09577624 669.54192229 -52.44868724 642.47718592 -34.0625 614.375 C-29.7190445 607.7241234 -25.53841724 601.12231542 -22 594 C-21.44965088 592.93289795 -21.44965088 592.93289795 -20.88818359 591.84423828 C-14.2421244 578.91774392 -9.32512633 566.15421486 -6 552 C-5.83419434 551.29568848 -5.66838867 550.59137695 -5.49755859 549.86572266 C-1.39037195 531.77380814 -0.69606467 513.19017384 -0.76622009 494.71098328 C-0.76606353 492.76208639 -0.76501973 490.81318942 -0.76317984 488.8642934 C-0.76067664 483.57318243 -0.7704997 478.28215887 -0.7825278 472.99106371 C-0.79331207 467.25851064 -0.79232978 461.52595752 -0.7928009 455.793396 C-0.79515401 445.87365637 -0.80469374 435.95394506 -0.81910515 426.03421593 C-0.83990105 411.64875285 -0.84848844 397.26330171 -0.8540265 382.8778256 C-0.86326804 359.47558989 -0.88067793 336.0733682 -0.90405273 312.67114258 C-0.90546029 311.25884554 -0.90686767 309.8465485 -0.9082749 308.43425146 C-0.9089725 307.73455311 -0.9096701 307.03485476 -0.91038884 306.31395343 C-0.91391682 302.77517957 -0.9174411 299.2364057 -0.92095947 295.69763184 C-0.92165793 294.99614974 -0.92235639 294.29466765 -0.92307602 293.57192852 C-0.93922052 277.31659 -0.9528612 261.06124974 -0.96557617 244.8059082 C-0.96612229 244.11031623 -0.9666684 243.41472425 -0.96723107 242.69805373 C-0.97971611 226.76675816 -0.99097245 210.83546234 -0.99983311 194.90416431 C-1.0002085 194.2314091 -1.00058389 193.55865389 -1.00097066 192.86551216 C-1.00434004 186.80766673 -1.00765906 180.74982128 -1.0107208 174.69197569 C-1.01866976 159.03794275 -1.03034545 143.38392473 -1.04920948 127.72990093 C-1.06089629 117.88647775 -1.06900872 108.04305572 -1.07447498 98.19962712 C-1.07776215 92.54604966 -1.08266052 86.89248691 -1.09228897 81.2389164 C-1.13727273 54.13605443 -0.7881809 27.09373379 0 0 Z " fill="#070706" transform="translate(80,0)"/>
<path d="M0 0 C4.62 0 9.24 0 14 0 C14.02300004 46.98870387 14.04060487 93.97740697 14.05106533 140.9661154 C14.05231547 146.56123189 14.05360985 152.15634837 14.05493164 157.75146484 C14.05519395 158.86497225 14.05545626 159.97847966 14.05572652 161.12572971 C14.06003326 178.96403395 14.0678921 196.80233485 14.0771528 214.64063713 C14.08663046 233.05568601 14.09208481 251.47073317 14.09408849 269.88578439 C14.09531672 280.18227971 14.09819906 290.47876811 14.10573006 300.77526093 C14.13900505 347.62971968 13.92831468 394.46749195 13.20106504 441.31670794 C13.06084511 450.36293047 12.94347733 459.40893216 12.87245178 468.45599365 C12.8614915 469.84991612 12.8614915 469.84991612 12.85030979 471.27199864 C12.47552131 526.18153235 19.78583981 575.32854516 49.875 622.1015625 C77.59971945 665.39912355 94.1534738 705.63809426 94.3125 757.5 C94.31611542 758.44104584 94.31973083 759.38209167 94.32345581 760.35165405 C94.35698756 783.13405124 93.07249228 805.85021277 91.92169189 828.59554291 C90.1195889 864.33292723 89.42841494 900.0160284 89.20787048 935.79516602 C89.19988591 937.08293945 89.19988591 937.08293945 89.19174004 938.39672852 C89.18114043 940.11021828 89.17070851 941.8237091 89.16044807 943.53720093 C88.99689806 969.68103528 88.17703956 995.8116133 87.125 1021.93383789 C86.99518824 1025.18293491 86.87259088 1028.43226389 86.75 1031.68164062 C86.6670913 1033.77866266 86.58377603 1035.87566868 86.5 1037.97265625 C86.46455078 1038.92962906 86.42910156 1039.88660187 86.39257812 1040.87257385 C86.35583984 1041.75388474 86.31910156 1042.63519562 86.28125 1043.54321289 C86.25095703 1044.31097549 86.22066406 1045.0787381 86.18945312 1045.86976624 C85.99970311 1048.00333829 85.57718768 1049.9403915 85 1052 C83.68 1052 82.36 1052 81 1052 C80.99503478 1050.77095947 80.99503478 1050.77095947 80.98996925 1049.51708984 C80.90758441 1029.27697062 80.81515545 1009.03691702 80.71247292 988.79689026 C80.66303512 979.00767454 80.61665274 969.21846444 80.578125 959.42919922 C80.4140581 918.15362278 80.13726761 876.938967 78.33864784 835.69688892 C77.75388336 821.83458113 77.57582426 807.9599409 77.3835659 794.08758736 C77.25689833 786.58881225 76.87397474 779.142092 76.15625 771.67578125 C76.05395081 770.52084419 76.05395081 770.52084419 75.94958496 769.34257507 C75.41886595 764.38179613 74.17031029 760.49611991 72 756 C71.4225 756.99 70.845 757.98 70.25 759 C69.5075 759.99 68.765 760.98 68 762 C66.68 762 65.36 762 64 762 C63.82984375 761.47792969 63.6596875 760.95585938 63.484375 760.41796875 C62.9649205 758.84026385 62.43815461 757.2649574 61.90625 755.69140625 C61.30733227 753.91272387 60.72367877 752.12882057 60.15625 750.33984375 C57.51051419 742.41404037 53.64500012 732.29602341 46 728 C40.94942066 727.14833368 35.63593925 726.97282794 30.8046875 728.85546875 C21.64127124 735.53284607 19.14746486 749.78988301 17.33178711 760.27636719 C13.73275259 783.62908505 12.9189681 807.43458931 12.00390625 831.01171875 C11.9617845 832.07777784 11.91966274 833.14383694 11.87626457 834.24220085 C10.96520296 857.40385374 10.33225893 880.57105328 9.73876953 903.74264526 C8.83982009 938.71577224 7.88754285 973.68932277 6.67990112 1008.65328979 C6.55926776 1012.15500867 6.44516453 1015.656842 6.33694458 1019.15896606 C6.21149835 1023.2068928 6.07271178 1027.2541307 5.92291451 1031.30122757 C5.87099188 1032.76129857 5.82368586 1034.22154263 5.78147697 1035.68192673 C5.72344979 1037.65938821 5.64637901 1039.63626348 5.56835938 1041.61303711 C5.53077515 1042.70990341 5.49319092 1043.80676971 5.45446777 1044.93687439 C4.93094459 1048.46543544 3.82237382 1050.94644619 2 1054 C1.34 1054.33 0.68 1054.66 0 1055 C-1.88320536 1050.20325412 -2.335233 1045.79636709 -2.4140625 1040.69921875 C-2.43342865 1039.90457718 -2.4527948 1039.10993561 -2.4727478 1038.29121399 C-2.53214458 1035.75675019 -2.57855776 1033.22223055 -2.625 1030.6875 C-2.66325805 1029.02797605 -2.70231408 1027.3684703 -2.7421875 1025.70898438 C-2.9072584 1018.38187875 -3.00252368 1011.06397914 -2.97485352 1003.73461914 C-2.95005511 991.35297985 -3.25161477 978.97481498 -3.50727057 966.59648371 C-3.55137224 964.45568678 -3.59493717 962.31487954 -3.63834572 960.17406845 C-3.84146693 950.16438678 -4.05035222 940.15483197 -4.2619257 930.14532566 C-4.31249138 927.75040836 -4.36284066 925.35548659 -4.41313934 922.96056366 C-5.25658417 882.84105425 -6.16586566 842.72779473 -7.625 802.625 C-7.6562711 801.7586644 -7.68754219 800.8923288 -7.71976089 799.9997406 C-7.92348413 794.36674288 -8.13433318 788.73405491 -8.3515625 783.1015625 C-8.37745264 782.41995937 -8.40334278 781.73835625 -8.43001747 781.03609848 C-8.02248933 753.53330886 -8.02248933 753.53330886 -19.9375 730.125 C-26.56108839 726.51213361 -33.01698403 726.21263215 -40.25 727.8125 C-43.58773085 728.8694481 -45.38870559 729.79044319 -48 732 C-48.66 732 -49.32 732 -50 732 C-50.26039062 732.53238281 -50.52078125 733.06476562 -50.7890625 733.61328125 C-51.68518056 735.37950105 -52.62430075 737.12404889 -53.5859375 738.85546875 C-60.50435527 751.7406442 -62.84907788 764.55478871 -64.47924805 778.97875977 C-64.60828616 780.11722886 -64.73732428 781.25569796 -64.87027264 782.42866611 C-66.20383195 794.46442924 -67.24980086 806.50949421 -68.08203125 818.58984375 C-68.16696146 819.81995619 -68.25189167 821.05006863 -68.33939552 822.3174572 C-70.95587551 861.47865292 -71.08304277 900.75403787 -71.56771386 939.98611772 C-71.77857626 957.02304517 -72.019703 974.05957187 -72.26149398 991.09608406 C-72.34532355 997.04236011 -72.42348622 1002.9886746 -72.49650037 1008.93509305 C-72.54219557 1012.60887829 -72.59120001 1016.28261488 -72.64086151 1019.95634842 C-72.66292982 1021.64655738 -72.68353228 1023.33678627 -72.7025013 1025.02703285 C-72.80065275 1033.72334233 -72.9994492 1042.34954079 -74 1051 C-74.99 1051.33 -75.98 1051.66 -77 1052 C-77.00662029 1051.41523832 -77.01324059 1050.83047665 -77.02006149 1050.22799492 C-77.24147831 1030.77670707 -77.48647815 1011.32575928 -77.75 991.875 C-77.76022611 991.11966099 -77.77045222 990.36432198 -77.78098822 989.5860939 C-78.42449049 942.22762976 -79.44627555 894.89345185 -80.99530983 847.55577564 C-81.06252959 845.49909452 -81.1293608 843.44240111 -81.1960907 841.38570404 C-81.48887137 832.37145418 -81.79001906 823.35750587 -82.09765625 814.34375 C-82.13618525 813.20269428 -82.17471424 812.06163857 -82.21441078 810.8860054 C-82.59801321 799.61475306 -83.02797212 788.3582063 -83.7931366 777.10574341 C-84.71445205 763.27357525 -83.4601837 750.18249767 -81.36376953 736.51513672 C-80.80996871 732.68610584 -80.40234468 728.8476651 -80 725 C-79.34 725 -78.68 725 -78 725 C-77.7525 723.2675 -77.7525 723.2675 -77.5 721.5 C-76.41334948 716.58271096 -74.41313648 712.29674535 -72.1875 707.8125 C-71.85621094 707.13574219 -71.52492188 706.45898438 -71.18359375 705.76171875 C-66.45308654 696.48264692 -60.80304739 691.75931342 -51 688 C-41.17626292 684.97818226 -31.40422799 684.73608168 -21.1875 684.6875 C-19.48871704 684.67904053 -19.48871704 684.67904053 -17.75561523 684.67041016 C-12.39823301 684.71665192 -7.42076719 685.02144468 -2.17578125 686.14453125 C2.0891269 687.01725818 4.84348355 686.83878454 8.953125 685.54199219 C13.05167724 684.45673623 17.2850094 684.61798056 21.5 684.625 C22.94161499 684.62632935 22.94161499 684.62632935 24.41235352 684.62768555 C40.42210915 684.89000958 55.39369988 689.33390963 66.8828125 700.89453125 C72.65352072 707.66152766 75.70665047 715.84170254 79 724 C73.9621366 691.45637435 68.90031102 663.03957059 45.34375 638.42480469 C43.6668688 636.64677441 42.07887103 634.8027349 40.5 632.9375 C37.01614977 628.89862461 33.22080045 625.19354078 29.42871094 621.44799805 C25.41612191 617.46661805 21.62505394 613.33985331 18 609 C17.34 609.99 16.68 610.98 16 612 C13 611 13 611 11.0625 607.9375 C6.25538023 597.47926233 4.69871724 586.00495506 3.3125 574.6875 C3.19318115 573.71756104 3.0738623 572.74762207 2.95092773 571.74829102 C1.13235753 555.6625576 0.83513405 539.46828156 0.68579102 523.29614258 C0.66502706 521.31265596 0.64415554 519.32917046 0.62318993 517.34568596 C0.55442032 510.59119991 0.49761656 503.83663154 0.44140625 497.08203125 C0.43098148 495.87709526 0.4205567 494.67215928 0.40981603 493.43071008 C-0.3547539 404.90377994 -0.11327239 316.3693434 -0.07202756 227.8400861 C-0.06400104 210.42000236 -0.05860688 192.99991917 -0.05493164 175.57983398 C-0.05466892 174.33811252 -0.05440619 173.09639105 -0.05413551 171.81704166 C-0.05282968 165.58249154 -0.05156616 159.34794141 -0.05032361 153.11339128 C-0.04009778 102.0755913 -0.02253563 51.03779593 0 0 Z " fill="#FCFCFC" transform="translate(110,0)"/>
<path d="M0 0 C0.6589476 -0.00671722 1.3178952 -0.01343445 1.99681091 -0.02035522 C4.18650793 -0.03942204 6.37589879 -0.04326626 8.56567383 -0.04541016 C10.09629948 -0.05184126 11.6269239 -0.05856986 13.157547 -0.06558228 C16.37817217 -0.0775831 19.59868998 -0.08126115 22.81933594 -0.08007812 C26.90526945 -0.07987686 30.99049216 -0.10696322 35.07625866 -0.14162254 C38.2465974 -0.16411917 41.4167727 -0.16790851 44.587183 -0.16685867 C46.09036985 -0.16918891 47.59356306 -0.17786339 49.09667015 -0.19352341 C69.76308347 -0.38834256 87.32208573 5.78937339 102.58520508 20.29052734 C113.52191406 31.82548366 117.48109488 44.13566151 117.61645508 59.93896484 C116.90765124 75.99337186 110.87281645 88.89490126 99.30395508 99.95849609 C93.11860399 105.26403431 86.65246572 109.67707522 78.58520508 111.29052734 C83.20408025 118.91587036 88.29478738 126.1184417 93.54077148 133.3190918 C97.15060805 138.28197375 100.68810639 143.28434239 104.14770508 148.35302734 C108.12378831 154.17677662 112.14540917 159.96577752 116.21020508 165.72802734 C116.73171143 166.46867432 117.25321777 167.20932129 117.79052734 167.97241211 C118.51260376 168.99419556 118.51260376 168.99419556 119.24926758 170.03662109 C119.89049561 170.94432251 119.89049561 170.94432251 120.54467773 171.87036133 C121.51702616 173.27317415 121.51702616 173.27317415 122.58520508 174.29052734 C122.77270508 177.22802734 122.77270508 177.22802734 122.58520508 180.29052734 C119.16434114 183.71139128 114.41233451 182.70137982 109.77270508 182.72802734 C108.77432617 182.76089844 107.77594727 182.79376953 106.74731445 182.82763672 C99.414006 182.88137849 99.414006 182.88137849 95.76879883 180.28271484 C95.04821289 179.29529297 94.32762695 178.30787109 93.58520508 177.29052734 C93.11977295 176.68313721 92.65434082 176.07574707 92.17480469 175.44995117 C90.55961662 173.32145854 89.00645808 171.15706038 87.46020508 168.97802734 C86.89035889 168.18187012 86.3205127 167.38571289 85.73339844 166.56542969 C81.70510085 160.91807388 77.74768584 155.22376578 73.83642578 149.49487305 C69.39899089 142.99538818 64.88071661 136.55345305 60.35498047 130.11523438 C59.79286865 129.31456543 59.23075684 128.51389648 58.65161133 127.68896484 C58.15604736 126.98433105 57.6604834 126.27969727 57.14990234 125.55371094 C55.58520508 123.29052734 55.58520508 123.29052734 53.8828125 120.06591797 C51.78339302 116.94782656 51.78339302 116.94782656 48.01000977 116.51757812 C46.59291296 116.47682416 45.17465067 116.46801113 43.75708008 116.48583984 C43.00807434 116.47213348 42.2590686 116.45842712 41.48736572 116.44430542 C39.10270084 116.40701101 36.72012012 116.41071905 34.33520508 116.41552734 C32.71538087 116.39739981 31.09558424 116.37659693 29.47583008 116.35302734 C25.5119393 116.301183 21.5494163 116.28609594 17.58520508 116.29052734 C17.59186691 117.07313431 17.59852875 117.85574127 17.60539246 118.6620636 C17.6654794 126.03389856 17.71116698 133.40561495 17.74064159 140.77763081 C17.75630418 144.56776174 17.77755286 148.35769051 17.81152344 152.14770508 C17.84409637 155.80463335 17.86205363 159.46136705 17.86983681 163.11842918 C17.87538409 164.5143153 17.88621657 165.91019065 17.90239525 167.30599403 C17.92413937 169.25947324 17.92543022 171.21314785 17.92578125 173.16674805 C17.93244308 174.27927444 17.93910492 175.39180084 17.94596863 176.53804016 C17.58520508 179.29052734 17.58520508 179.29052734 16.19697571 181.14900208 C14.05315537 182.66734783 12.63664097 182.67795107 10.02270508 182.68896484 C9.14356445 182.69283203 8.26442383 182.69669922 7.35864258 182.70068359 C6.4434082 182.68908203 5.52817383 182.67748047 4.58520508 182.66552734 C3.21235352 182.68292969 3.21235352 182.68292969 1.81176758 182.70068359 C0.93262695 182.69681641 0.05348633 182.69294922 -0.85229492 182.68896484 C-2.05692383 182.68388916 -2.05692383 182.68388916 -3.28588867 182.67871094 C-6.0622035 182.17247922 -6.75593351 181.5782789 -8.41479492 179.29052734 C-8.78952503 176.16269588 -8.78952503 176.16269588 -8.78901672 172.22361755 C-8.79497833 171.13770619 -8.79497833 171.13770619 -8.80106038 170.02985722 C-8.81070542 167.5975875 -8.79885237 165.16589623 -8.78710938 162.73364258 C-8.7895366 160.99262271 -8.79325524 159.25160422 -8.798172 157.5105896 C-8.80759348 152.7772387 -8.7981454 148.04409412 -8.78483987 143.31075931 C-8.77354317 138.36424135 -8.77763145 133.41773381 -8.77958679 128.47120667 C-8.78047025 120.16460794 -8.76937788 111.85809075 -8.75097656 103.55151367 C-8.7298012 93.93742711 -8.72630023 84.32345997 -8.73253852 74.70935482 C-8.73822578 65.47278094 -8.73259452 56.23624927 -8.72136497 46.99968147 C-8.71671122 43.06310308 -8.71584847 39.12655042 -8.71795082 35.18997002 C-8.71982934 30.55823601 -8.71176364 25.9266242 -8.69589043 21.29491806 C-8.69163462 19.59128767 -8.69080567 17.88764491 -8.69358063 16.18401146 C-8.69678446 13.86602305 -8.68776661 11.54840391 -8.67549133 9.23045349 C-8.67343846 7.93093467 -8.67138559 6.63141584 -8.66927052 5.29251766 C-8.17740697 -0.50988397 -5.02319561 0.03207652 0 0 Z " fill="#010101" transform="translate(470.414794921875,715.70947265625)"/>
<path d="M0 0 C14.57864407 10.05137284 22.44353354 28.95973896 25.7421875 45.890625 C28.12969405 62.50773997 27.56523406 79.56710527 23.7421875 95.890625 C23.53722656 96.80585937 23.33226562 97.72109375 23.12109375 98.6640625 C19.38270951 113.01388523 10.7729355 128.38806343 -2.265625 136.07421875 C-12.8537661 141.56958476 -25.67439821 143.17322804 -37.3203125 139.828125 C-50.22043435 134.41108164 -59.12043869 122.35293208 -64.46728516 109.89404297 C-69.63218394 96.80474111 -71.46037786 84.18189134 -71.49804688 70.14233398 C-71.50764951 67.98966254 -71.53868435 65.83799092 -71.5703125 63.68554688 C-71.73231603 42.64799423 -66.94785766 21.21517242 -51.9921875 5.51171875 C-37.06301181 -8.27491798 -17.62624575 -10.0581901 0 0 Z " fill="#FDFDFD" transform="translate(367.2578125,739.109375)"/>
<path d="M0 0 C18.18933673 15.68724868 28.05600756 38.49881899 31 62 C31.20680478 66.5819792 31.22793001 71.16235246 31.24023438 75.74829102 C31.24983701 77.90096246 31.28087185 80.05263408 31.3125 82.20507812 C31.43591896 98.18634489 28.21728197 112.27569539 22 127 C21.60941406 127.92554688 21.21882812 128.85109375 20.81640625 129.8046875 C12.5050826 147.80776226 -2.01876947 161.45702968 -20.25 168.875 C-28.44570044 171.33371013 -36.26319695 172.36522698 -44.8125 172.3125 C-46.25761963 172.30404053 -46.25761963 172.30404053 -47.73193359 172.29541016 C-64.0874026 172.01773284 -77.68376835 166.85802572 -90 156 C-90.73863281 155.35546875 -91.47726562 154.7109375 -92.23828125 154.046875 C-109.63785267 137.81929544 -118.90525175 112.67570581 -120.20654297 89.2878418 C-120.3027195 85.3981739 -120.32213066 81.51578581 -120.3125 77.625 C-120.32861328 76.33078125 -120.34472656 75.0365625 -120.36132812 73.703125 C-120.37460947 47.08730015 -110.29692774 22.08325145 -92.125 2.6875 C-67.481972 -20.78668873 -26.10022483 -21.36615516 0 0 Z M-76.125 19.1875 C-89.43431586 35.71323386 -93.58104457 55.75775158 -93.39111328 76.48217773 C-93.37497092 78.56625455 -93.39111518 80.64840132 -93.41015625 82.73242188 C-93.44481805 103.8145304 -87.90543679 125.74779845 -73.0625 141.375 C-63.28388701 150.58728405 -53.55096345 152.60918907 -40.45703125 152.30859375 C-29.06161514 151.73103428 -20.47424637 146.03332061 -12.875 137.8125 C4.24570095 116.60185383 6.7689959 89.34756846 4.69140625 63.1015625 C4.26131725 60.01862366 3.70013609 57.03258946 3 54 C2.74347656 52.87851562 2.48695313 51.75703125 2.22265625 50.6015625 C-1.89217971 34.60138491 -9.58534622 18.94605945 -24 10 C-41.859489 -0.47981336 -62.52600618 4.47618742 -76.125 19.1875 Z " fill="#020202" transform="translate(389,728)"/>
<path d="M0 0 C0.9169313 -0.00990463 1.83386261 -0.01980927 2.77857971 -0.03001404 C4.28417702 -0.02326157 4.28417702 -0.02326157 5.82019043 -0.01637268 C7.40832802 -0.02666756 7.40832802 -0.02666756 9.02854919 -0.03717041 C12.53670571 -0.05550807 16.04441804 -0.05159119 19.5526123 -0.0459137 C21.98494615 -0.05047185 24.41727871 -0.05577631 26.84960938 -0.0617981 C31.95069608 -0.0707427 37.05162635 -0.06829029 42.15270996 -0.05836487 C48.70030948 -0.04686839 55.24737027 -0.06709086 61.79489899 -0.09628201 C66.81853687 -0.11459774 71.84204452 -0.11436085 76.8657074 -0.10864449 C79.28031673 -0.10849073 81.6949346 -0.11457937 84.10951233 -0.12693596 C87.48086703 -0.14175798 90.85121182 -0.13123324 94.22253418 -0.11402893 C95.22626572 -0.1236969 96.22999725 -0.13336487 97.2641449 -0.14332581 C98.1810762 -0.13349167 99.09800751 -0.12365753 100.04272461 -0.11352539 C101.23843708 -0.11321146 101.23843708 -0.11321146 102.45830536 -0.1128912 C104.5213623 0.38768005 104.5213623 0.38768005 106.27637482 2.25298977 C107.847719 4.94726035 107.92194838 6.78323678 107.8963623 9.88768005 C107.90796387 11.2953363 107.90796387 11.2953363 107.9197998 12.73143005 C107.43202781 15.98324335 106.92619181 17.13034696 104.5213623 19.38768005 C101.67711786 19.76902072 99.22130242 19.89393427 96.37805176 19.84178162 C95.54856018 19.84236572 94.7190686 19.84294983 93.86444092 19.84355164 C91.12075045 19.84076332 88.37814438 19.8096367 85.63464355 19.77830505 C83.73321628 19.77084531 81.83178133 19.76515112 79.93034363 19.76115417 C74.92421262 19.74587686 69.91854535 19.70657696 64.91259766 19.66233826 C58.90713841 19.61423934 52.90152415 19.59586154 46.89592743 19.57252502 C37.77074979 19.53372722 28.6465898 19.45708808 19.5213623 19.38768005 C19.5213623 39.51768005 19.5213623 59.64768005 19.5213623 80.38768005 C39.1324478 80.26893228 39.1324478 80.26893228 58.74328613 80.11741638 C61.19665131 80.1086569 63.65002083 80.1010117 66.10339355 80.0947113 C67.38355347 80.0793634 68.66371338 80.0640155 69.98266602 80.04820251 C71.20046753 80.04783997 72.41826904 80.04747742 73.67297363 80.04710388 C74.73220535 80.04044205 75.79143707 80.03378021 76.88276672 80.0269165 C79.5213623 80.38768005 79.5213623 80.38768005 81.36198425 81.70584106 C83.26127562 84.46102714 82.91687373 87.10585269 82.8963623 90.38768005 C82.90796387 92.24393005 82.90796387 92.24393005 82.9197998 94.13768005 C82.5213623 97.38768005 82.5213623 97.38768005 81.36198425 99.06951904 C78.75113758 100.93927633 76.86641328 100.74834075 73.67297363 100.72825623 C72.45517212 100.72789368 71.23737061 100.72753113 69.98266602 100.72715759 C68.06242615 100.70413574 68.06242615 100.70413574 66.10339355 100.6806488 C64.33868713 100.67611694 64.33868713 100.67611694 62.53833008 100.67149353 C58.13675179 100.65577816 53.73529839 100.61389433 49.3338623 100.57518005 C39.4957373 100.51330505 29.6576123 100.45143005 19.5213623 100.38768005 C19.5213623 120.84768005 19.5213623 141.30768005 19.5213623 162.38768005 C25.91124512 162.35287537 32.30112793 162.31807068 38.88464355 162.2822113 C42.92697037 162.26688704 46.9692615 162.25244549 51.01159668 162.24119568 C57.43118709 162.22324549 63.85064942 162.20198521 70.2701416 162.16136169 C75.44428602 162.12882294 80.61829315 162.11083858 85.79253197 162.10304832 C87.76895497 162.09749495 89.74537027 162.08665088 91.721735 162.07048988 C94.48494472 162.0487885 97.24758337 162.04571007 100.01086426 162.04710388 C100.83229416 162.03631805 101.65372406 162.02553223 102.50004578 162.01441956 C108.07807977 162.04496972 108.07807977 162.04496972 110.22798443 163.70710278 C112.31862282 166.42361699 111.9553672 169.03237947 111.9588623 172.38768005 C111.97819824 173.62518005 111.99753418 174.86268005 112.01745605 176.13768005 C111.5213623 179.38768005 111.5213623 179.38768005 109.78211212 181.06657505 C107.21633609 182.56592696 105.80209955 182.7665104 102.85327148 182.77536011 C101.91958237 182.78526474 100.98589325 182.79516937 100.02391052 182.80537415 C98.49801048 182.79862167 98.49801048 182.79862167 96.94128418 182.79173279 C95.86447891 182.79859604 94.78767365 182.80545929 93.67823792 182.81253052 C90.11539563 182.8308466 86.55299161 182.82695435 82.9901123 182.8212738 C80.51676286 182.82583296 78.04341468 182.83113773 75.57006836 182.8371582 C70.38499812 182.84609854 65.20008183 182.84365518 60.01501465 182.83372498 C53.36323411 182.8222285 46.71218848 182.84245263 40.06044769 182.87164211 C34.95270399 182.88996744 29.84508826 182.88971904 24.73731995 182.88400459 C22.28446203 182.88385096 19.83159567 182.88992975 17.37876892 182.90229607 C13.95265182 182.91713613 10.52752603 182.90657979 7.10144043 182.88938904 C5.57554039 182.90389099 5.57554039 182.90389099 4.01881409 182.91868591 C3.08512497 182.90885178 2.15143585 182.89901764 1.18945312 182.8888855 C0.3797834 182.88867621 -0.42988632 182.88846693 -1.26409149 182.8882513 C-4.45008776 182.16809557 -5.57558889 181.02712478 -7.4786377 178.38768005 C-7.97920895 175.17082882 -7.97920895 175.17082882 -7.97984314 171.28317261 C-7.98537754 170.56724994 -7.99091193 169.85132728 -7.99661404 169.11370999 C-8.01022935 166.71436464 -7.9952476 164.31605798 -7.98034668 161.91673279 C-7.98412952 160.19688983 -7.98962928 158.47704991 -7.99671936 156.75721741 C-8.01069478 152.08578495 -7.99949008 147.41471993 -7.98300815 142.74330783 C-7.9691723 137.858654 -7.97561597 132.97402181 -7.97914124 128.08935547 C-7.98184426 119.88706021 -7.96835892 111.68491122 -7.94519043 103.48265076 C-7.91857125 93.99292369 -7.91683606 84.50344107 -7.92857879 75.01368946 C-7.93934838 65.89189738 -7.93317653 56.77019392 -7.91902351 47.64840889 C-7.91325748 43.76288324 -7.91335121 39.8774223 -7.91808891 35.99189568 C-7.92285238 31.41918462 -7.91278335 26.84674213 -7.89113426 22.27408218 C-7.88555791 20.59345086 -7.88510884 18.91279377 -7.89008713 17.23216057 C-7.89601918 14.94287447 -7.88357598 12.65441531 -7.86631775 10.36520386 C-7.86388785 9.08265433 -7.86145796 7.80010481 -7.85895443 6.47869015 C-7.4786377 3.38768005 -7.4786377 3.38768005 -6.23432255 1.47581482 C-4.00953513 0.09694063 -2.61370965 0.00796727 0 0 Z " fill="#050505" transform="translate(823.4786376953125,715.6123199462891)"/>
<path d="M0 0 C2.38502044 2.12708986 4.70425621 4.28869841 6.96875 6.54296875 C6.61266914 9.29072603 6.23031212 10.32193795 4.078125 12.140625 C3.29953125 12.62402344 2.5209375 13.10742188 1.71875 13.60546875 C0.90277344 14.11464844 0.08679688 14.62382813 -0.75390625 15.1484375 C-1.50542969 15.60863281 -2.25695312 16.06882812 -3.03125 16.54296875 C-3.918125 17.16171875 -4.805 17.78046875 -5.71875 18.41796875 C-8.86991849 19.95096964 -10.55972293 20.16784362 -14.03125 19.54296875 C-15.91170585 18.20102681 -17.55240719 16.71502384 -19.2421875 15.140625 C-26.7075402 8.47396724 -35.008987 8.21855534 -44.62109375 8.33984375 C-51.50846641 8.75008817 -55.27365888 10.39727534 -59.96875 15.48046875 C-64.07249072 20.33204377 -64.38045435 24.73789049 -64.31640625 30.94140625 C-63.6409419 37.10386179 -60.48204394 41.41008867 -56.03125 45.54296875 C-56.03125 46.20296875 -56.03125 46.86296875 -56.03125 47.54296875 C-55.34506592 47.79699463 -54.65888184 48.05102051 -53.9519043 48.31274414 C-51.24025139 49.45493414 -48.70793953 50.77348771 -46.139328 52.20411682 C-36.59155764 57.51378683 -26.65462482 61.51953647 -16.48803711 65.47290039 C-7.53798451 68.96903004 0.36122031 72.52260754 7.96875 78.54296875 C9.020625 79.30609375 10.0725 80.06921875 11.15625 80.85546875 C20.22694472 89.52302149 24.98115677 99.78203295 25.38867188 112.29614258 C25.49697963 126.91016749 21.10530583 139.41470017 11.65625 150.85546875 C10.769375 151.74234375 9.8825 152.62921875 8.96875 153.54296875 C8.30875 153.54296875 7.64875 153.54296875 6.96875 153.54296875 C6.96875 154.20296875 6.96875 154.86296875 6.96875 155.54296875 C-11.5446374 171.95554624 -33.13204342 176.04631168 -57.29443359 174.76171875 C-74.23239907 173.40789029 -89.41390872 165.62803329 -102.03125 154.54296875 C-103.21856614 153.66771928 -104.40603931 152.79268274 -105.59375 151.91796875 C-108.51291208 149.07365698 -108.55071104 147.48446807 -109.03125 143.54296875 C-107.47027526 142.43664685 -105.90739673 141.3330109 -104.34375 140.23046875 C-103.47363281 139.61558594 -102.60351562 139.00070312 -101.70703125 138.3671875 C-100.38251953 137.46419922 -100.38251953 137.46419922 -99.03125 136.54296875 C-98.19980469 135.97191406 -97.36835937 135.40085937 -96.51171875 134.8125 C-93.60877629 133.32674205 -92.23685737 132.89486773 -89.03125 133.54296875 C-86.48828125 135.73828125 -86.48828125 135.73828125 -83.84375 138.66796875 C-79.07189747 143.71871153 -74.37234442 147.54090472 -68.03125 150.54296875 C-67.32355469 150.88070312 -66.61585938 151.2184375 -65.88671875 151.56640625 C-60.02723266 153.803478 -54.09985276 153.81599031 -47.90625 153.85546875 C-47.05885254 153.8611084 -46.21145508 153.86674805 -45.33837891 153.87255859 C-32.70122708 153.72707724 -20.98736707 149.11581681 -11.71484375 140.40234375 C-4.66277751 132.61398289 -2.35114199 124.75540275 -2.65625 114.34375 C-3.43775317 106.42288978 -7.23737438 100.43405585 -13.046875 95.12109375 C-22.13531265 87.89328113 -33.1542437 83.79905799 -43.79296875 79.40136719 C-79.22980274 64.74641482 -79.22980274 64.74641482 -88.03125 47.16796875 C-91.58687176 37.76666376 -91.88916295 25.43563957 -88.46875 15.91796875 C-82.0177468 2.97100762 -70.46974285 -6.61063665 -56.8125 -11.203125 C-37.70958712 -15.94614275 -15.30288293 -12.40401206 0 0 Z " fill="#030303" transform="translate(735.03125,725.45703125)"/>
<path d="M0 0 C0.92425781 -0.00386719 1.84851563 -0.00773438 2.80078125 -0.01171875 C4.24517578 0.00568359 4.24517578 0.00568359 5.71875 0.0234375 C6.68167969 0.01183594 7.64460937 0.00023437 8.63671875 -0.01171875 C9.56097656 -0.00785156 10.48523438 -0.00398437 11.4375 0 C12.28248047 0.00338379 13.12746094 0.00676758 13.99804688 0.01025391 C16.81920283 0.50339792 17.52284163 1.09978821 19.21875 3.3984375 C19.58789349 6.25074291 19.58789349 6.25074291 19.57951355 9.79545593 C19.58207682 10.44730403 19.5846401 11.09915213 19.58728105 11.7707532 C19.59222974 13.95899125 19.57570908 16.14654212 19.55932617 18.3347168 C19.55848013 19.90164168 19.55895459 21.46856775 19.56065369 23.03549194 C19.56151596 27.29354672 19.54385274 31.55134901 19.52293181 35.80934501 C19.50420364 40.25763409 19.50241762 44.70592868 19.49885559 49.1542511 C19.48952376 57.57966576 19.46489461 66.00496392 19.43480712 74.43032724 C19.40129849 84.02149173 19.38478601 93.61266174 19.36972082 103.20387018 C19.33834603 122.93545769 19.28556344 142.66694026 19.21875 162.3984375 C20.32708694 162.39177567 21.43542389 162.38511383 22.5773468 162.37825012 C33.01012779 162.31749842 43.44287301 162.27249346 53.8757906 162.24300098 C59.23977835 162.22732901 64.60362358 162.20606275 69.9675293 162.17211914 C75.14167372 162.13958038 80.31568084 162.12159603 85.48991966 162.11380577 C87.46634267 162.1082524 89.44275796 162.09740833 91.4191227 162.08124733 C94.18233241 162.05954594 96.94497106 162.05646751 99.70825195 162.05786133 C100.52968185 162.0470755 101.35111176 162.03628967 102.19743347 162.025177 C107.78077275 162.05575622 107.78077275 162.05575622 109.92537212 163.73372936 C111.93408119 166.31914109 111.65259846 168.61892669 111.65625 171.8359375 C111.67558594 172.96902344 111.69492188 174.10210938 111.71484375 175.26953125 C111.21875 178.3984375 111.21875 178.3984375 109.84899902 180.56164551 C105.69862624 183.45999141 101.58403897 182.95537822 96.63867188 182.91601562 C95.56186661 182.9230249 94.48506134 182.93003418 93.37562561 182.93725586 C89.81265553 182.95487542 86.2504783 182.94319837 82.6875 182.9296875 C80.21415046 182.93238126 77.74080196 182.9362627 75.26745605 182.94128418 C70.08233565 182.94718463 64.89749075 182.93859827 59.71240234 182.91992188 C53.06058044 182.89713226 46.40967312 182.91025218 39.75783539 182.93421173 C34.65007652 182.94865464 29.5424711 182.94407053 24.43470764 182.93370056 C21.98185653 182.93102913 19.52899155 182.93431758 17.07615662 182.94361877 C13.65000416 182.95375908 10.22490219 182.93831706 6.79882812 182.91601562 C5.78156143 182.92411255 4.76429474 182.93220947 3.71620178 182.94055176 C2.78251266 182.92927246 1.84882355 182.91799316 0.88684082 182.90637207 C0.0771711 182.90486397 -0.73249863 182.90335587 -1.5667038 182.90180206 C-4.75110364 182.17799055 -5.87827604 181.03731835 -7.78125 178.3984375 C-8.28182125 175.18158627 -8.28182125 175.18158627 -8.28245544 171.29393005 C-8.28798984 170.57800739 -8.29352424 169.86208472 -8.29922634 169.12446743 C-8.31284166 166.72512209 -8.2978599 164.32681542 -8.28295898 161.92749023 C-8.28674183 160.20764728 -8.29224158 158.48780736 -8.29933167 156.76797485 C-8.31330709 152.09654239 -8.30210238 147.42547738 -8.28562045 142.75406528 C-8.2717846 137.86941144 -8.27822827 132.98477926 -8.28175354 128.10011292 C-8.28445657 119.89781766 -8.27097122 111.69566866 -8.24780273 103.4934082 C-8.22118356 94.00368114 -8.21944836 84.51419852 -8.2311911 75.0244469 C-8.24196068 65.90265483 -8.23578884 56.78095137 -8.22163582 47.65916634 C-8.21586978 43.77364068 -8.21596352 39.88817975 -8.22070122 36.00265312 C-8.22546468 31.42994206 -8.21539565 26.85749957 -8.19374657 22.28483963 C-8.18817022 20.60420831 -8.18772115 18.92355122 -8.19269943 17.24291801 C-8.19863149 14.95363191 -8.18618828 12.66517276 -8.16893005 10.3759613 C-8.16650016 9.09341178 -8.16407026 7.81086226 -8.16156673 6.48944759 C-7.78125 3.3984375 -7.78125 3.3984375 -6.39581394 1.48660374 C-4.19358554 0.0023698 -2.64363601 0.01058664 0 0 Z " fill="#050505" transform="translate(1002.78125,715.6015625)"/>
<path d="M0 0 C6.496875 -0.103125 12.99375 -0.20625 19.6875 -0.3125 C21.70963623 -0.35802002 23.73177246 -0.40354004 25.81518555 -0.45043945 C39.24330624 -0.62638243 50.35063538 0.96372778 61 9.98828125 C69.24379734 18.28038209 73.05973254 26.71976105 73.4375 38.3125 C73.13879681 50.26062778 69.65427204 59.60709859 61 68 C43.08083985 82.38962861 23.06928595 78 0 78 C0 52.26 0 26.52 0 0 Z " fill="#FBFBFB" transform="translate(488,735)"/>
<path d="M0 0 C1.98 0 3.96 0 6 0 C5.99924056 0.79750858 5.99848112 1.59501716 5.99769866 2.41669267 C5.95260102 50.05222897 5.91845686 97.68776287 5.89786934 145.32331636 C5.89536897 151.08753321 5.89278022 156.85175001 5.89013672 162.6159668 C5.88934979 164.33675345 5.88934979 164.33675345 5.88854696 166.09230346 C5.87992655 184.48552749 5.8642047 202.87873857 5.84569441 221.27195501 C5.82675898 240.25086498 5.81583439 259.22976834 5.81182301 278.20868737 C5.80936336 288.82423574 5.80357514 299.43975729 5.78853989 310.05529594 C5.72365243 357.22870625 6.13153786 404.32489973 7.6678232 451.47456187 C9.6293957 514.00231808 9.6293957 514.00231808 5 542 C4.82839355 543.07233887 4.65678711 544.14467773 4.47998047 545.24951172 C1.01327084 566.24494614 -4.65380202 588.43263893 -18.484375 605.16015625 C-20.16170611 607.13325232 -20.16170611 607.13325232 -22 610 C-22.66 610 -23.32 610 -24 610 C-24.33 610.99 -24.66 611.98 -25 613 C-27.0625 613.6875 -27.0625 613.6875 -29 614 C-28.32517578 612.95392578 -28.32517578 612.95392578 -27.63671875 611.88671875 C-2.8498898 571.20452854 2.159869 524.93462153 2.1875 478.375 C2.18913147 476.93291672 2.18913147 476.93291672 2.1907959 475.46170044 C2.18960097 466.11727975 2.12384123 456.77709752 1.76704407 447.43873596 C0.79376819 421.85392793 0.88607264 396.27591918 0.93143654 370.67617512 C0.94075466 364.74461587 0.94480717 358.81305388 0.94872195 352.88148914 C0.95616733 341.65562626 0.9665032 330.4297689 0.97923845 319.20391084 C1.01232939 289.95532263 1.02593491 260.70672575 1.0308702 231.45812008 C1.03125039 229.26336214 1.03168348 227.06860422 1.03212166 224.87384629 C1.0421767 171.51884579 0.87605438 118.16628715 0.5 64.8125 C0.49398521 63.95327895 0.48797043 63.09405789 0.48177338 62.20879984 C0.33660213 41.4724038 0.17926132 20.73613165 0 0 Z " fill="#F9F9F9" transform="translate(94,0)"/>
<path d="M0 0 C1.05519274 3.16557821 0.95866718 4.46604486 0.4765625 7.69140625 C0.3425 8.63822266 0.2084375 9.58503906 0.0703125 10.56054688 C-0.21788961 12.50338303 -0.50689878 14.44609972 -0.796875 16.38867188 C-2.95237695 31.62969748 -3.15944437 46.96411924 -3.09204102 62.3293457 C-3.08809128 64.03236759 -3.08433732 65.73538994 -3.08076572 67.43841267 C-3.03705398 83.28468849 -2.8400198 99.12868169 -2.59904289 114.97301292 C-2.52401153 119.91109865 -2.45445195 124.84925408 -2.38563538 129.78742981 C-2.18977446 143.79400876 -1.98864471 157.80050433 -1.77905273 171.80688477 C-1.66215748 179.62170651 -1.55040768 187.43658575 -1.44397742 195.25155717 C-1.3880267 199.34318489 -1.32965011 203.43474062 -1.26466179 207.52623558 C-0.95570905 227.06070886 -1.05633645 246.47796791 -2 266 C-4.1501896 262.0788209 -4.40186386 258.573837 -4.5625 254.171875 C-4.61677658 252.97710289 -4.61677658 252.97710289 -4.67214966 251.75819397 C-4.79067519 249.08910664 -4.89561129 246.41967505 -5 243.75 C-5.08004477 241.85634181 -5.16062385 239.96270614 -5.24169922 238.0690918 C-5.46165063 232.84633495 -5.66718449 227.62310131 -5.86853027 222.39959717 C-6.00424737 218.89016992 -6.14303172 215.38087295 -6.28222656 211.87158203 C-6.52469128 205.72888569 -6.75971986 199.58594172 -6.98925781 193.44274902 C-7.07836043 191.05981502 -7.16849585 188.67691937 -7.25976562 186.29406738 C-7.75167644 173.32772056 -8.06566303 160.38967195 -8.01065063 147.41357422 C-7.98043715 139.46899959 -8.16983453 131.54710201 -8.42861938 123.60766602 C-9.01893346 104.62675923 -9.20026753 85.63481306 -9.28710938 66.64584351 C-9.30179416 63.57458542 -9.32603113 60.50364186 -9.35888672 57.43252563 C-9.56989383 36.93382401 -8.87935123 18.88681676 0 0 Z " fill="#FAFAFA" transform="translate(26,693)"/>
<path d="M0 0 C0.33 0 0.66 0 1 0 C1.06058594 0.63808594 1.12117188 1.27617188 1.18359375 1.93359375 C1.26738281 2.75988281 1.35117187 3.58617187 1.4375 4.4375 C1.51871094 5.26121094 1.59992187 6.08492187 1.68359375 6.93359375 C1.78930815 8.98662025 1.78930815 8.98662025 3 10 C3.33 8.35 3.66 6.7 4 5 C4.66 5.33 5.32 5.66 6 6 C5.9278125 6.72960937 5.855625 7.45921875 5.78125 8.2109375 C5.21301812 14.60354612 4.90613421 20.93237924 4.9140625 27.34765625 C4.91487823 28.1295079 4.91569397 28.91135956 4.91653442 29.71690369 C4.95469698 37.35596614 5.32095796 44.9647385 5.74078369 52.59078979 C6.81439119 72.36220678 7.5094884 92.14747935 8.125 111.9375 C8.14690903 112.64047211 8.16881805 113.34344421 8.19139099 114.06771851 C8.86208704 135.7131779 9.31509299 157.34341633 9 179 C7.35 179.33 5.7 179.66 4 180 C3.67 183.63 3.34 187.26 3 191 C2.67 191 2.34 191 2 191 C1.73597925 171.85526277 1.47509206 152.7104851 1.21769714 133.56565762 C1.09805084 124.67160002 0.9774694 115.77755714 0.85449219 106.88354492 C0.74700852 99.10987651 0.64147692 91.33618417 0.53806591 83.56246048 C0.48351042 79.46603803 0.4281305 75.36963142 0.37039185 71.27325249 C0.0363654 47.51432863 -0.05513653 23.76118564 0 0 Z " fill="#090908" transform="translate(22,737)"/>
<path d="M0 0 C0.33 0 0.66 0 1 0 C1.06058594 0.63808594 1.12117188 1.27617188 1.18359375 1.93359375 C1.26738281 2.75988281 1.35117187 3.58617187 1.4375 4.4375 C1.51871094 5.26121094 1.59992187 6.08492187 1.68359375 6.93359375 C1.78930815 8.98662025 1.78930815 8.98662025 3 10 C3.33 8.35 3.66 6.7 4 5 C4.66 5.33 5.32 5.66 6 6 C5.9278125 6.72960937 5.855625 7.45921875 5.78125 8.2109375 C5.21924402 14.53350473 4.90266296 20.80413791 4.90625 27.15234375 C4.90665283 27.92387283 4.90705566 28.69540192 4.9074707 29.49031067 C4.95626642 39.06928024 5.48638189 48.62437899 6 58.1875 C6.63808765 70.13879594 7.1650702 82.02897154 7 94 C6.34 93.01 5.68 92.02 5 91 C4.01 91.495 4.01 91.495 3 92 C2.53476937 93.89533342 2.53476937 93.89533342 2.375 96.0625 C2.25125 97.361875 2.1275 98.66125 2 100 C2.66 100.33 3.32 100.66 4 101 C3.34 101 2.68 101 2 101 C2 108.26 2 115.52 2 123 C1.67 123 1.34 123 1 123 C0.86666213 112.7213545 0.73615732 102.44267677 0.60884857 92.16395473 C0.54959314 87.38622261 0.48951697 82.60850439 0.42724609 77.83081055 C0.08985406 51.88577345 -0.07161315 25.94723471 0 0 Z " fill="#0F0D0B" transform="translate(22,737)"/>
<path d="M0 0 C0.33 0 0.66 0 1 0 C1 11.55 1 23.1 1 35 C-1.475 35.495 -1.475 35.495 -4 36 C-4.33 39.63 -4.66 43.26 -5 47 C-5.33 47 -5.66 47 -6 47 C-6 34.13 -6 21.26 -6 8 C-4.33333333 8 -2.66666667 8 -1 8 C-0.67 5.36 -0.34 2.72 0 0 Z " fill="#12100E" transform="translate(30,881)"/>
<path d="M0 0 C0.33 0.99 0.66 1.98 1 3 C1.99 3.3403125 1.99 3.3403125 3 3.6875 C5 5 5 5 5.75 8.1875 C6.27452944 14.76241553 6.07724587 21.40835281 6 28 C5.34 27.01 4.68 26.02 4 25 C3.34 25.33 2.68 25.66 2 26 C1.53476937 27.89533342 1.53476937 27.89533342 1.375 30.0625 C1.25125 31.361875 1.1275 32.66125 1 34 C1.66 34.33 2.32 34.66 3 35 C2.34 35 1.68 35 1 35 C1 42.26 1 49.52 1 57 C0.67 57 0.34 57 0 57 C0 38.19 0 19.38 0 0 Z " fill="#1B1917" transform="translate(23,803)"/>
<path d="M0 0 C0.33 0 0.66 0 1 0 C1.06058594 0.63808594 1.12117188 1.27617188 1.18359375 1.93359375 C1.26738281 2.75988281 1.35117187 3.58617187 1.4375 4.4375 C1.51871094 5.26121094 1.59992187 6.08492187 1.68359375 6.93359375 C1.78930815 8.98662025 1.78930815 8.98662025 3 10 C3.33 8.35 3.66 6.7 4 5 C4.66 5.33 5.32 5.66 6 6 C5.67 10.29 5.34 14.58 5 19 C4.67 19 4.34 19 4 19 C3.94392578 20.91425781 3.94392578 20.91425781 3.88671875 22.8671875 C3.82107209 24.53648838 3.7546243 26.20575789 3.6875 27.875 C3.66494141 28.71675781 3.64238281 29.55851563 3.61914062 30.42578125 C3.5659668 31.63427734 3.5659668 31.63427734 3.51171875 32.8671875 C3.48553467 33.61081543 3.45935059 34.35444336 3.43237305 35.12060547 C3 37 3 37 0 39 C0 26.13 0 13.26 0 0 Z " fill="#181613" transform="translate(22,737)"/>
<path d="M0 0 C2.31 0 4.62 0 7 0 C6.745504 1.48206495 6.47088238 2.96068615 6.1875 4.4375 C6.03667969 5.26121094 5.88585937 6.08492188 5.73046875 6.93359375 C5.36888672 7.95646484 5.36888672 7.95646484 5 9 C4.01 9.33 3.02 9.66 2 10 C2 19.9 2 29.8 2 40 C1.01 40.495 1.01 40.495 0 41 C0 27.47 0 13.94 0 0 Z " fill="#1E1B18" transform="translate(80,0)"/>
<path d="M0 0 C0.99 0 1.98 0 3 0 C4.53332291 6.33773468 5.48446121 12.50149789 6 19 C3.93052904 15.89579356 2.67553856 12.9681325 1.3125 9.5 C0.85488281 8.3553125 0.39726562 7.210625 -0.07421875 6.03125 C-1 3 -1 3 0 0 Z " fill="#25211F" transform="translate(184,709)"/>
<path d="M0 0 C0.33 0 0.66 0 1 0 C1.05816623 3.41659491 1.09365195 6.83306205 1.125 10.25 C1.14175781 11.21808594 1.15851562 12.18617188 1.17578125 13.18359375 C1.18222656 14.11816406 1.18867188 15.05273438 1.1953125 16.015625 C1.20578613 16.87446289 1.21625977 17.73330078 1.22705078 18.61816406 C0.98293323 21.17903596 0.28990512 22.79511029 -1 25 C-1.33 25 -1.66 25 -2 25 C-2 19.06 -2 13.12 -2 7 C-1.67 7 -1.34 7 -1 7 C-0.67 4.69 -0.34 2.38 0 0 Z " fill="#040302" transform="translate(25,755)"/>
<path d="M0 0 C3.45015205 4.60020273 3.22331682 6.88234832 2.6875 12.25 C2.62626953 12.99507812 2.56503906 13.74015625 2.50195312 14.5078125 C2.3492857 16.33982155 2.17660246 18.17014316 2 20 C1.67 20 1.34 20 1 20 C0.67 13.4 0.34 6.8 0 0 Z " fill="#1F1D1B" transform="translate(54,851)"/>
</svg>
