<svg xmlns="http://www.w3.org/2000/svg" width="1502" height="698" viewBox="0 0 1502 698">
<g>
<path d="M 135.00 697.31 C132.92,696.53 129.03,692.89 127.78,690.58 C127.21,689.52 126.37,682.32 125.91,674.58 C125.46,666.84 124.63,654.42 124.07,647.00 C122.78,629.71 119.65,576.76 115.99,510.50 C115.41,500.05 114.52,484.98 114.00,477.00 C113.49,469.02 112.82,458.45 112.52,453.50 C110.01,412.23 107.89,379.32 107.01,368.00 C106.43,360.58 105.51,346.40 104.96,336.50 C103.05,302.19 100.99,279.59 99.37,275.18 C97.29,269.51 91.27,265.00 85.80,265.00 C80.84,265.00 76.79,267.10 73.54,271.36 C71.24,274.38 70.78,276.55 69.05,292.61 C68.00,302.45 66.41,319.27 65.54,330.00 C64.66,340.73 63.50,354.00 62.95,359.50 C60.95,379.41 59.01,400.04 56.54,427.50 C55.15,442.90 53.58,459.77 53.05,465.00 C52.52,470.23 51.60,481.02 51.00,489.00 C49.21,512.98 46.15,550.44 44.52,568.25 C43.69,577.46 42.34,592.31 41.53,601.25 C40.73,610.19 39.16,627.40 38.04,639.50 C36.93,651.60 35.52,667.12 34.90,674.00 C34.28,680.88 33.16,687.70 32.41,689.16 C26.81,700.06 12.13,697.21 10.64,684.94 C10.35,682.50 9.14,649.22 7.97,611.00 C6.79,572.78 5.42,528.00 4.91,511.50 C1.35,395.62 0.18,298.83 1.91,262.50 C3.69,225.10 6.30,206.94 12.04,192.05 C18.04,176.50 29.17,162.61 44.16,151.97 C53.45,145.37 75.77,134.36 89.94,129.38 L 100.86 125.55 L 101.51 117.03 C101.87,112.34 102.86,101.75 103.70,93.50 C104.68,84.04 105.42,63.99 105.72,39.25 L 106.19 0.00 L 137.25 0.00 L 168.31 0.00 L 167.71 19.75 C167.09,39.71 167.62,53.71 170.54,95.50 C172.73,126.82 172.21,124.45 177.27,125.94 C184.81,128.16 203.39,135.67 212.05,140.00 C234.46,151.21 251.45,166.93 260.38,184.71 C266.65,197.20 269.66,211.26 272.21,240.00 C273.91,259.10 273.90,413.58 272.19,463.50 C271.52,483.30 270.52,517.05 269.97,538.50 C268.43,599.06 265.02,683.12 263.94,687.00 C261.45,695.96 252.82,699.63 245.19,694.97 C240.49,692.11 239.18,688.01 238.00,672.47 C236.40,651.37 235.07,635.08 233.43,616.50 C231.74,597.27 230.70,584.80 228.53,557.50 C225.95,525.23 224.05,502.41 222.01,479.50 C220.94,467.40 219.35,448.95 218.49,438.50 C217.63,428.05 216.49,415.00 215.96,409.50 C215.43,404.00 214.54,393.65 213.99,386.50 C212.84,371.67 210.56,345.45 209.07,330.00 C208.52,324.23 207.59,312.75 207.01,304.50 C205.38,281.21 204.36,275.16 201.43,271.32 C196.35,264.65 188.32,263.06 181.88,267.44 C176.48,271.10 175.10,275.09 173.96,290.19 C173.41,297.51 172.53,308.23 172.00,314.00 C171.00,324.88 166.77,386.14 165.03,415.00 C164.48,424.08 163.12,445.23 162.01,462.00 C160.08,491.06 159.29,503.68 156.99,541.75 C155.40,568.11 154.05,589.64 152.44,614.50 C151.62,627.15 150.29,648.83 149.48,662.68 C148.67,676.53 147.60,688.90 147.11,690.18 C145.24,695.02 138.86,698.78 135.00,697.31 ZM 417.34 567.58 C385.33,561.49 361.11,541.09 342.97,504.95 C334.11,487.29 327.66,465.01 324.90,442.50 C323.33,429.74 323.34,398.47 324.91,385.50 C329.99,343.79 343.16,313.85 366.97,289.93 C380.85,275.98 393.86,267.91 410.54,262.88 C420.57,259.86 443.56,259.13 455.11,261.45 C473.18,265.10 488.12,273.24 502.83,287.44 C533.11,316.68 546.99,352.56 548.69,406.00 C549.89,443.51 544.09,474.21 530.40,502.93 C514.03,537.26 491.41,558.04 461.50,566.22 C452.22,568.77 427.54,569.53 417.34,567.58 ZM 445.54 517.45 C467.37,511.76 484.49,487.76 491.14,453.54 C495.39,431.66 495.38,398.36 491.12,376.36 C485.92,349.55 473.79,327.10 459.20,317.29 C451.92,312.40 448.04,311.07 438.80,310.30 C418.12,308.57 399.68,323.57 388.74,351.00 C381.68,368.71 379.03,383.03 378.28,407.59 C377.43,435.40 380.16,455.89 387.25,474.77 C391.87,487.04 396.14,493.96 404.75,503.06 C417.75,516.80 430.60,521.34 445.54,517.45 ZM 885.25 568.00 C869.94,565.85 855.58,560.51 843.34,552.40 C830.02,543.58 816.03,526.84 816.01,519.70 C815.99,514.12 818.59,511.41 832.23,502.77 C853.43,489.34 854.31,489.31 865.47,501.57 C871.17,507.82 874.64,510.68 879.36,513.00 C891.95,519.20 911.77,520.49 926.07,516.05 C939.13,511.99 951.57,501.25 957.40,489.00 C960.15,483.22 960.50,481.50 960.50,473.50 C960.50,465.83 960.10,463.66 957.82,458.78 C954.63,451.98 947.58,444.16 940.00,439.01 C936.97,436.96 922.73,429.37 908.35,422.15 C892.19,414.03 879.21,406.80 874.35,403.19 C858.63,391.52 848.39,377.58 842.98,360.50 C839.82,350.50 839.08,330.24 841.49,319.37 C844.84,304.21 851.93,292.07 864.25,280.36 C872.77,272.28 881.67,266.92 892.83,263.15 C900.03,260.72 901.70,260.56 920.00,260.53 C937.42,260.50 940.35,260.75 947.50,262.80 C960.97,266.68 969.56,271.51 978.03,279.97 C989.28,291.21 991.77,298.56 986.46,304.87 C983.83,307.99 960.73,323.01 955.49,325.00 C950.61,326.86 946.67,325.44 941.35,319.90 C934.88,313.16 930.32,310.95 921.57,310.28 C904.61,309.00 893.80,316.87 892.28,331.60 C891.58,338.38 893.33,344.70 897.55,350.64 C903.67,359.25 910.19,363.51 938.80,377.62 C968.75,392.39 976.33,396.70 985.87,404.37 C998.81,414.79 1008.96,430.16 1013.17,445.71 C1016.22,456.96 1016.21,478.00 1013.16,490.38 C1009.07,507.01 1000.53,522.04 987.11,536.27 C972.30,551.96 955.46,561.41 933.00,566.60 C925.28,568.39 894.45,569.29 885.25,568.00 ZM 594.42 563.11 C592.73,562.08 590.81,559.95 590.16,558.37 C589.26,556.19 589.04,520.92 589.24,412.67 L 589.50 269.84 L 592.82 266.87 L 596.15 263.90 L 645.82 264.23 L 695.50 264.57 L 705.12 267.19 C728.10,273.47 748.50,287.33 761.57,305.57 C774.93,324.21 781.37,350.03 778.97,375.33 C775.66,410.23 759.85,434.92 728.26,454.50 C728.12,454.59 740.88,476.67 756.62,503.58 C772.35,530.48 785.67,553.75 786.21,555.27 C787.59,559.10 786.52,562.44 783.48,563.83 C781.78,564.60 774.03,565.00 760.77,565.00 C737.50,565.00 734.09,564.11 729.18,556.72 C727.71,554.50 715.24,533.29 701.48,509.59 L 676.46 466.50 L 659.73 466.23 L 643.00 465.95 L 643.00 511.03 C643.00,560.47 643.01,560.39 637.03,563.48 C634.72,564.68 630.21,565.00 615.80,565.00 C599.66,564.99 597.14,564.77 594.42,563.11 ZM 686.39 415.02 C717.97,409.85 734.82,370.35 718.90,338.80 C715.26,331.58 706.31,322.22 699.95,318.97 C691.60,314.70 686.72,314.02 664.25,314.01 L 643.00 314.00 L 643.00 365.00 L 643.00 416.00 L 661.75 415.99 C672.06,415.99 683.15,415.55 686.39,415.02 ZM 1082.39 564.03 C1081.23,563.55 1079.31,561.94 1078.14,560.45 L 1076.00 557.73 L 1076.00 414.27 L 1076.00 270.80 L 1079.40 267.40 L 1082.80 264.00 L 1163.00 264.00 L 1243.20 264.00 L 1246.60 267.40 L 1250.00 270.80 L 1250.00 287.95 C1250.00,301.56 1249.68,305.72 1248.43,308.13 C1245.40,314.00 1245.40,314.00 1185.03,314.00 L 1130.00 314.00 L 1130.00 351.00 L 1130.00 388.00 L 1168.25 388.00 C1211.11,388.00 1211.77,388.10 1215.28,395.00 C1216.82,398.01 1217.03,400.76 1216.78,414.68 C1216.53,429.28 1216.30,431.14 1214.41,433.68 C1210.73,438.63 1208.51,438.88 1167.75,438.94 L 1130.00 439.00 L 1130.00 477.00 L 1130.00 515.00 L 1188.75 515.00 C1245.70,515.01 1247.60,515.07 1250.77,517.00 C1252.58,518.10 1254.52,520.23 1255.09,521.73 C1255.71,523.36 1256.00,531.41 1255.81,541.71 L 1255.50 558.96 L 1252.73 561.73 L 1249.96 564.50 L 1167.23 564.70 C1121.73,564.80 1083.55,564.50 1082.39,564.03 ZM 1326.88 563.50 C1320.64,560.11 1321.00,569.15 1321.00,414.57 C1321.00,295.29 1321.22,273.42 1322.42,270.53 C1324.87,264.67 1327.53,264.00 1348.40,264.00 C1368.72,264.00 1371.12,264.51 1373.82,269.44 C1375.36,272.25 1375.52,282.53 1375.77,393.75 L 1376.03 515.00 L 1434.11 515.00 C1498.57,515.00 1497.29,514.87 1500.42,521.48 C1502.57,526.01 1502.69,553.42 1500.58,558.47 C1497.72,565.32 1502.03,565.00 1411.30,564.96 C1342.50,564.93 1329.08,564.69 1326.88,563.50 Z" fill="rgba(0,0,0,1)"/>
</g>
</svg>