<?xml version="1.0" encoding="UTF-8"?>
<svg version="1.1" xmlns="http://www.w3.org/2000/svg" width="1115" height="1068">
<path d="M0 0 C4.95 0 9.9 0 15 0 C16.24140015 18.76417981 16.13136287 37.52802192 16.10140657 56.32220364 C16.09495972 61.08316827 16.09445772 65.84413421 16.0932312 70.60510254 C16.09035995 78.83711689 16.08394575 87.06912213 16.07516479 95.3011322 C16.06253144 107.23443164 16.05651551 119.16772777 16.05223143 131.10103279 C16.04518102 150.50941513 16.03439482 169.91779327 16.02050781 189.32617188 C16.01968 190.48499156 16.01885219 191.64381125 16.01799929 192.83774668 C16.01125885 202.23354417 16.00433584 211.62934151 15.99739647 221.02513885 C15.99134493 229.22704564 15.98536357 237.42895246 15.97949219 245.63085938 C15.97866406 246.78582175 15.97783593 247.94078412 15.97698271 249.13074535 C15.96324542 268.46267113 15.95351376 287.79459697 15.94658184 307.12652636 C15.94212865 319.0131736 15.93414743 330.89980816 15.92143703 342.78644949 C15.91294128 350.94734422 15.9081046 359.10823608 15.90601182 367.26913494 C15.90468156 371.95934799 15.90177139 376.64954464 15.89425278 381.3397522 C15.86331238 401.31800906 16.0657933 421.23682648 16.89464068 441.19990873 C17.13075934 447.47513723 17.18053153 453.75197879 17.203125 460.03125 C17.20736607 461.01273766 17.20736607 461.01273766 17.21169281 462.01405334 C17.22629983 465.46461317 17.23577143 468.91513527 17.24023438 472.36572266 C17.24463003 475.1220413 17.25862127 477.87804889 17.28125 480.63427734 C17.64870093 526.45247088 11.36551794 570.81838961 -12 611 C-11.67 611 -11.34 611 -11 611 C-10.09469486 609.60970996 -9.19190961 608.21724161 -8.328125 606.80078125 C-7 605 -7 605 -4.6015625 602.671875 C10.87165131 586.78046623 14.60959904 560.85376791 18 540 C18.13277344 539.22624023 18.26554687 538.45248047 18.40234375 537.65527344 C20.29352863 526.39847356 20.15420495 515.18049996 20.01489258 503.79760742 C20.00095459 502.58951416 19.9870166 501.3814209 19.97265625 500.13671875 C19.95468994 499.05092529 19.93672363 497.96513184 19.91821289 496.84643555 C20 494 20 494 20.49681091 492.105896 C21.04344283 489.81818747 21.12942672 487.80994137 21.1328125 485.45922852 C21.13482666 484.56372787 21.13684082 483.66822723 21.13891602 482.74559021 C21.13202759 481.29564415 21.13202759 481.29564415 21.125 479.81640625 C21.12234131 478.80139542 21.11968262 477.78638458 21.11694336 476.74061584 C21.04671458 465.12747587 20.53388033 453.5368563 20 441.9375 C18.90800615 417.84950821 18.90800615 417.84950821 18.99609375 407.38989258 C19.00066806 403.42024967 18.89973707 399.4597612 18.78125 395.4921875 C18.75892303 394.73324188 18.73659607 393.97429626 18.71359253 393.19235229 C18.66648631 391.59121636 18.61935629 389.99008113 18.57220459 388.38894653 C18.0616672 370.61357106 17.88876608 352.84482815 17.875 335.0625 C17.87250244 333.93285828 17.87000488 332.80321655 17.86743164 331.63934326 C17.86152081 328.39624999 17.86303223 325.15325065 17.8671875 321.91015625 C17.86520355 320.95441208 17.8632196 319.99866791 17.86117554 319.01396179 C17.8794305 313.67893355 18.16680307 308.45792629 18.77294922 303.15641785 C19.0860089 300.18312927 19.13243315 297.23812747 19.125 294.25 C19.12757812 293.20328125 19.13015625 292.1565625 19.1328125 291.078125 C19.07574233 288.05505595 19.07574233 288.05505595 18.49978638 285.34692383 C17.89867175 281.32143424 17.86017671 277.43418323 17.87060547 273.37109375 C17.86797699 272.10140999 17.86797699 272.10140999 17.86529541 270.80607605 C17.86090663 268.01652962 17.86380655 265.22704704 17.8671875 262.4375 C17.86651311 260.48421212 17.86554195 258.53092432 17.86428833 256.57763672 C17.86281496 252.48225099 17.8649525 248.38688709 17.86962891 244.29150391 C17.87529572 239.0781325 17.87206433 233.86481294 17.86605644 228.65144348 C17.86241519 224.61390809 17.86360618 220.57638466 17.86618423 216.53884888 C17.86684526 214.61898797 17.86605435 212.69912594 17.86370468 210.77926636 C17.85458851 201.2286668 17.9935796 191.78619679 18.77514648 182.26119995 C19.17232045 176.50072206 19.12767913 170.74419723 19.09765625 164.97265625 C19.0942775 163.68013443 19.09089874 162.38761261 19.0874176 161.05592346 C19.04294747 148.44832563 18.78018088 135.84518909 18.51535034 123.24066162 C18.07682156 101.81755955 17.97235822 80.44569273 18.59130859 59.02441406 C18.97702362 45.57606426 19.08957428 32.14131536 19.0625 18.6875 C19.0606369 17.73325134 19.0587738 16.77900269 19.05685425 15.7958374 C19.04497603 10.53051667 19.02584328 5.26526997 19 0 C22.96 0 26.92 0 31 0 C31.67869816 83.22496939 32.09656568 166.4466793 32.06369162 249.6745953 C32.06249952 252.71607377 32.06141471 255.75755226 32.06035233 258.79903078 C32.05011137 287.42748428 32.02908802 316.05592704 32.00520325 344.68437195 C31.99637341 355.27501404 31.98779516 365.86565631 31.97949219 376.45629883 C31.97866406 377.51078773 31.97783593 378.56527663 31.97698271 379.65171974 C31.96327525 397.26916827 31.95354413 414.88661694 31.94658184 432.50406939 C31.94216025 443.20363476 31.93424966 453.90318584 31.92143703 464.60274453 C31.91298041 471.8470073 31.90811353 479.09126682 31.90601182 486.33553421 C31.90467963 490.48508012 31.90175274 494.63460754 31.89425278 498.78414726 C31.86574388 515.11417583 31.94323024 531.40044221 32.87787056 547.71028531 C33.05004921 550.9383357 33.16984276 554.16774586 33.28636074 557.39822334 C33.96794231 574.52077084 35.33357696 595.87889731 44 611 C44.66 611.33 45.32 611.66 46 612 C46 610.35 46 608.7 46 607 C48.62187494 608.04874998 49.79371361 608.64931313 51.25 611.125 C51.4975 611.74375 51.745 612.3625 52 613 C52.99 613 53.98 613 55 613 C55.70189453 614.44052734 55.70189453 614.44052734 56.41796875 615.91015625 C59.4651779 621.23707967 63.92994461 625.20942549 68.3125 629.4375 C83.08405886 643.81882343 93.2868064 657.87726241 101 677 C101.36480469 677.85078125 101.72960937 678.7015625 102.10546875 679.578125 C105.69621999 689.29980958 106.5983174 700.44196346 108.1875 710.625 C108.36651855 711.76348389 108.54553711 712.90196777 108.72998047 714.07495117 C108.8951416 715.15623291 109.06030273 716.23751465 109.23046875 717.3515625 C109.37895264 718.31916504 109.52743652 719.28676758 109.68041992 720.28369141 C109.98657707 722.8859102 110.05862788 725.38287543 110 728 C107.35682017 725.35682017 106.47386815 722.30669691 105.1875 718.875 C100.89419109 707.8208124 95.29553268 698.36411779 84.37890625 692.62109375 C69.22699004 686.25350622 52.0838344 683.11597842 35.94921875 687.6171875 C31.60369109 688.47061778 27.0920354 687.51071389 22.83984375 686.47265625 C6.48813035 683.75111936 -15.06128948 685.31884828 -30 693 C-31.01064368 693.98924181 -32.01303239 694.98713528 -33 696 C-33.66 696 -34.32 696 -35 696 C-35.27199219 696.55042969 -35.54398438 697.10085938 -35.82421875 697.66796875 C-36.63963275 699.28525166 -37.47722318 700.89146969 -38.33203125 702.48828125 C-42.48154288 710.40410422 -45.55978041 718.42553804 -48 727 C-48.29849854 727.97815674 -48.29849854 727.97815674 -48.60302734 728.97607422 C-57.89802306 760.4694381 -51.71695764 798.72867078 -50.43077087 831.01933289 C-49.93529414 843.49845501 -49.49071847 855.97914923 -49.06365967 868.46078491 C-48.94430044 871.92748619 -48.82122894 875.39403904 -48.69775391 878.8605957 C-48.43994858 886.23967349 -48.21178498 893.61946771 -48 901 C-47.97782284 901.76737865 -47.95564568 902.53475731 -47.93279648 903.32538986 C-47.03209725 934.80725199 -46.87051853 966.27061342 -46.93133545 997.76391602 C-46.94182175 1003.80028919 -46.94618548 1009.83666709 -46.95117188 1015.87304688 C-46.96169272 1027.5820429 -46.97860908 1039.29101912 -47 1051 C-46.34 1050.67 -45.68 1050.34 -45 1050 C-45.01160156 1049.44054688 -45.02320313 1048.88109375 -45.03515625 1048.3046875 C-45.09113809 1043.33030087 -44.91418998 1038.43308502 -44.5146637 1033.47373962 C-43.99971742 1026.49336826 -43.79399518 1019.54238161 -43.70288086 1012.54516602 C-43.68322769 1011.27928146 -43.66357452 1010.01339691 -43.64332581 1008.70915222 C-43.59015503 1005.27363439 -43.54189491 1001.83806451 -43.49474788 998.40245938 C-43.44391926 994.75052274 -43.388948 991.09864788 -43.33460999 987.44676208 C-43.24365651 981.29144992 -43.15587577 975.13609882 -43.07006836 968.98071289 C-42.98313424 962.74661291 -42.89307004 956.51256929 -42.79956055 950.27856445 C-42.07672405 906.46260998 -42.07672405 906.46260998 -42.0400238 862.64247131 C-42.12046702 851.20334915 -41.72573599 839.81608368 -39.99609375 828.4921875 C-38.94924297 821.04511765 -38.46475328 813.63051623 -38.0625 806.125 C-34.48089591 745.56818425 -34.48089591 745.56818425 -18.5625 730.375 C-12.12083 725.5187521 -3.78535876 725.09208644 4 726 C9.57039838 727.66167816 14.14293284 730.83989772 17 736 C17.9503174 738.62033124 18.72792395 741.22663445 19.421875 743.92578125 C19.80951631 745.97328173 19.80951631 745.97328173 21 747 C21.22068135 749.18401742 21.37327758 751.37492872 21.5 753.56640625 C21.54028824 754.25531448 21.58057648 754.94422272 21.62208557 755.65400696 C21.75399789 757.9565475 21.8775668 760.25943701 22 762.5625 C22.04357635 763.35521301 22.08715271 764.14792603 22.13204956 764.96466064 C22.92640549 779.52561024 23.37133348 794.08716158 23.65820312 808.66625977 C23.80281884 815.8670158 23.98296546 823.05862205 24.34065247 830.25237751 C25.04516534 844.42944128 25.39120737 858.61085431 25.71875 872.80078125 C25.76574032 874.78719523 25.81273319 876.77360915 25.85991514 878.76001859 C26.0263927 885.77185199 26.18920075 892.78376598 26.35012186 899.79572892 C26.46685912 904.8808245 26.58501367 909.96588566 26.70379639 915.05093384 C27.55800037 951.66948641 28.3519223 988.28707583 28.68895149 1024.91478729 C28.7083695 1026.99586926 28.72942023 1029.07692839 28.75094604 1031.1579895 C28.7752968 1033.5999866 28.79565524 1036.04202893 28.81082153 1038.48410034 C28.85970489 1043.42577616 28.94911772 1048.14559847 30 1053 C33.12371319 1051.39956219 33.12371319 1051.39956219 33.49194336 1049.08959961 C33.54487549 1048.30593018 33.59780762 1047.52226074 33.65234375 1046.71484375 C33.74878174 1045.36688721 33.74878174 1045.36688721 33.84716797 1043.99169922 C33.92281982 1042.51080811 33.92281982 1042.51080811 34 1041 C34.05430176 1039.96504395 34.10860352 1038.93008789 34.16455078 1037.86376953 C34.32266481 1034.43050896 34.44772644 1030.99747497 34.5625 1027.5625 C34.62727539 1025.7211145 34.62727539 1025.7211145 34.69335938 1023.8425293 C34.95402848 1015.93401493 35.09649238 1008.03750176 34.96313477 1000.12524414 C34.92000372 996.63491589 35.04661933 993.26845385 35.48158264 989.80273438 C36.00753572 985.23408751 36.2303964 980.70047528 36.35717773 976.10546875 C36.38341154 975.26121243 36.40964535 974.41695612 36.43667412 973.54711628 C36.52240645 970.76066969 36.60301458 967.97409998 36.68359375 965.1875 C36.74367469 963.20158438 36.8040814 961.21567858 36.86479187 959.2297821 C36.99311732 955.01004941 37.11919893 950.7902581 37.24346924 946.57040405 C37.43775927 939.97366219 37.63719817 933.37708223 37.83740234 926.78051758 C38.16818161 915.8617664 38.49493474 904.94289831 38.82037354 894.02398682 C39.19008792 881.61974032 39.56228038 869.21556904 39.93962002 856.81155205 C40.08000766 852.19149754 40.21707628 847.57135227 40.35327148 842.95117188 C43.28377959 744.8847597 43.28377959 744.8847597 58.57421875 729.19921875 C62.89739005 725.56301714 67.60284303 725.56045881 73 726 C73.825 726.06703125 74.65 726.1340625 75.5 726.203125 C81.86551084 728.23213158 85.79131261 737.31498813 88.8125 742.9375 C91.41184623 748.39085814 92.75537949 754.11082001 94 760 C95.32 760.33 96.64 760.66 98 761 C99.485 758.03 99.485 758.03 101 755 C107.44107345 760.91059244 107.63576992 769.48059419 108.1875 777.6875 C108.26863037 778.78674805 108.34976074 779.88599609 108.43334961 781.01855469 C108.96338939 788.79247151 109.12492896 796.51845321 109.03198242 804.30737305 C108.9534733 811.44351079 109.25572134 818.52677576 109.64477539 825.65112305 C109.96240879 831.61797163 110.06447781 837.52801322 109.9375 843.50390625 C109.90124774 845.92219209 109.90124774 845.92219209 110.5 847.8815918 C111.03409219 850.14444234 111.09782726 852.06785759 111.0625 854.390625 C110.93891868 864.82694412 110.95110357 875.24912176 111.21655273 885.68261719 C111.24959519 886.98505308 111.24959519 886.98505308 111.28330517 888.31380081 C111.30615739 889.21386227 111.32900961 890.11392372 111.35255432 891.04125977 C112.14018661 922.18253367 112.12129608 953.3178926 112.07202661 984.46620345 C112.0605517 991.85763582 112.05527773 999.2490695 112.05032361 1006.64050865 C112.0400608 1021.76034906 112.02264646 1036.88017264 112 1052 C112.66 1051.67 113.32 1051.34 114 1051 C115.02110608 1045.17173332 115.1862903 1039.37828045 115.28125 1033.47265625 C115.29929688 1032.57534286 115.31734375 1031.67802948 115.3359375 1030.75352478 C115.37416731 1028.84361015 115.41066605 1026.93366019 115.44555664 1025.02368164 C115.53741844 1020.02730595 115.64342949 1015.03123683 115.75 1010.03515625 C115.78099792 1008.57077621 115.78099792 1008.57077621 115.81262207 1007.07681274 C115.96585628 1000.04745587 116.18928239 993.02428549 116.5 986 C117.41139041 964.46002159 118.03992428 942.95938056 118.02734375 921.3984375 C118.02695162 920.6653002 118.02655949 919.9321629 118.02615547 919.17680931 C118.02078803 911.71256415 118.00527926 904.248416 117.97222996 896.78424072 C117.96036038 893.9462763 117.95226278 891.10830713 117.94462776 888.27032852 C117.937725 886.30999266 117.92506752 884.34967967 117.91221619 882.38937378 C117.89501617 876.02451643 118.10725244 869.79113123 118.76171875 863.45994568 C119.10729889 859.89227775 119.19874426 856.35348425 119.28125 852.76953125 C119.30886414 851.68933968 119.30886414 851.68933968 119.33703613 850.58732605 C119.41423802 847.56688407 119.48323609 844.54627346 119.55224609 841.52563477 C119.60447655 839.29434014 119.66148388 837.06320146 119.71875 834.83203125 C119.74904297 833.51952393 119.77933594 832.2070166 119.81054688 830.85473633 C119.97304927 827.54835711 120.31428452 824.32828875 120.75375366 821.04933167 C121.18734931 817.44082603 121.35385047 813.81993381 121.53515625 810.19140625 C121.59989388 808.94422318 121.59989388 808.94422318 121.66593933 807.67184448 C121.80335648 804.9689574 121.93420513 802.26583495 122.0625 799.5625 C122.10669067 798.63293488 122.15088135 797.70336975 122.19641113 796.74563599 C123.70510614 764.35345442 124.80244445 731.71643003 117 700 C116.83894775 699.33532715 116.67789551 698.6706543 116.51196289 697.98583984 C112.38720821 681.98643375 105.4218976 665.31659681 95.4765625 652.1015625 C93.5723347 649.39131235 92.40645759 646.57783014 91.140625 643.53125 C86.85119082 634.01223168 81.03073488 625.33466228 74.8828125 616.9375 C72.99988398 613.999819 71.94574274 611.34494276 71 608 C70.34 608 69.68 608 69 608 C63.87054921 598.35499546 59.52340094 588.63320711 55.79101562 578.3605957 C54.33177484 574.36948038 52.82934739 570.55962382 50.83203125 566.8046875 C49.00146569 563.25724507 48.33222113 560.12665555 47.9375 556.125 C47.79230896 554.79000751 47.64373484 553.45537962 47.4921875 552.12109375 C47.41581055 551.43644043 47.33943359 550.75178711 47.26074219 550.04638672 C46.92756259 547.4314884 46.43986961 544.85003824 45.9465332 542.26123047 C40.15302801 510.97703903 40.93586562 479.80792269 41.77059937 448.14123535 C41.96768962 440.35600164 42.03212562 432.58246428 42.00093079 424.79527283 C41.97280369 414.58899526 42.09763343 404.38506077 42.21875 394.1796875 C42.23532434 392.77304997 42.23532434 392.77304997 42.25223351 391.33799553 C42.32120231 385.50816938 42.39203742 379.67836707 42.46356201 373.84857178 C42.55984071 365.99161698 42.65439966 358.13464203 42.74781799 350.27765274 C42.78034524 347.56756941 42.81388572 344.85750003 42.84753418 342.14743042 C42.89684807 338.12702746 42.94021257 334.10660351 42.97866821 330.08608246 C42.99794879 328.20059237 43.02292727 326.31516264 43.04858398 324.42974854 C43.09683117 318.81503583 42.91040971 313.28568922 42.49243164 307.68530273 C41.92001773 299.78677391 41.96681723 291.94425941 42.12109375 284.03515625 C42.14565904 282.5276488 42.169583 281.02013078 42.19291687 279.51260376 C42.24295163 276.334951 42.29628456 273.15737979 42.35235596 269.97982788 C42.49807076 261.67171546 42.61723837 253.36318917 42.73828125 245.0546875 C42.75651821 243.81925611 42.75651821 243.81925611 42.7751236 242.5588665 C42.99004792 227.93493928 43.11664637 213.31319569 43.125 198.6875 C43.12861038 197.29460251 43.12861038 197.29460251 43.1322937 195.87356567 C43.13533005 194.52958206 43.13533005 194.52958206 43.13842773 193.15844727 C43.14156227 192.00591209 43.14156227 192.00591209 43.14476013 190.83009338 C43.11688802 184.10942583 43.00278461 177.41602659 42.62459564 170.7050724 C42.03294553 160.1618968 41.92752265 149.68176657 42.11003113 139.12610245 C42.15792856 136.34795254 42.19735449 133.56978039 42.23498535 130.79147339 C42.31617158 124.90253229 42.40741267 119.01377133 42.5 113.125 C42.60743214 106.26517055 42.71046974 99.40532172 42.80375671 92.54528427 C42.84259196 89.83852598 42.88866563 87.13195894 42.93518066 84.42532349 C43.06841508 75.58953076 42.94271358 66.87242884 42.23721313 58.06156921 C41.91717764 53.93106095 41.84984748 49.82823394 41.875 45.6875 C41.87693359 44.85645752 41.87886719 44.02541504 41.88085938 43.16918945 C41.97242755 28.77645207 42.5303103 14.3842472 43 0 C48.28 0 53.56 0 59 0 C60.00711071 25.08597618 60.13491945 50.14039054 60.10140657 75.2440784 C60.09493212 80.96026389 60.09445575 86.67645056 60.0932312 92.39263916 C60.09036724 102.26094048 60.08396641 112.12923416 60.07516479 121.99753189 C60.0625203 136.28005317 60.05651359 150.56257169 60.05223143 164.84509765 C60.05020391 171.5275092 60.04789945 178.20992065 60.04548645 184.89233208 C60.04524544 185.56078941 60.04500442 186.22924675 60.04475611 186.91796037 C60.03896821 202.76220275 60.0300099 218.60644307 60.02050781 234.45068359 C60.01988734 235.48822321 60.01988734 235.48822321 60.01925434 236.54672322 C60.01337672 246.36900549 60.00735901 256.19128767 60.001302 266.01356983 C59.99392643 277.97437852 59.98661677 289.93518725 59.97949219 301.89599609 C59.9790776 302.59003065 59.97866301 303.2840652 59.97823586 303.99913111 C59.96878071 319.85606833 59.96023487 335.71300534 59.95451355 351.56994438 C59.95415206 352.5702824 59.95415206 352.5702824 59.95378327 353.59082926 C59.95116209 360.90679374 59.94878024 368.22275826 59.94658184 375.53872287 C59.94210916 389.78693315 59.93408687 404.035133 59.92143703 418.28333841 C59.91300365 428.03396024 59.90811878 437.78457967 59.90601182 447.5352049 C59.90466918 453.15525718 59.90167574 458.77529597 59.89425278 464.39534378 C59.88747649 469.54514846 59.88537335 474.69493369 59.88688838 479.8447424 C59.88661827 481.70135893 59.88466367 483.55797619 59.8807956 485.4145887 C59.86244893 494.65367908 59.98038649 503.78516845 60.80355167 512.9938525 C61.00960995 516.14705604 60.94297455 519.21921644 60.8125 522.375 C60.65390079 557.78227387 77.0302851 589.25070045 96 618 C117.34019601 650.5236544 132.17821903 684.16011155 137 723 C137.10296387 723.75812988 137.20592773 724.51625977 137.31201172 725.29736328 C141.6539782 758.05074394 138.9409488 791.98022075 138.12937927 824.90767288 C138.08479129 826.71929765 138.04053065 828.5309305 137.99659729 830.34257126 C137.86979904 835.57087464 137.73832548 840.79901931 137.59949303 846.02701759 C137.55702448 847.64395602 137.51585128 849.26092905 137.47605324 850.87793541 C137.4203904 853.12008474 137.35945278 855.3620314 137.29711914 857.60400391 C137.26380997 858.86822174 137.23050079 860.13243958 137.19618225 861.43496704 C136.99958426 865.00755486 136.52257172 868.46230627 136 872 C135.87557052 873.81374814 135.78086441 875.62982748 135.71875 877.44677734 C135.68201172 878.46669769 135.64527344 879.48661804 135.60742188 880.53744507 C135.57197266 881.62594757 135.53652344 882.71445007 135.5 883.8359375 C135.45939453 884.9875235 135.41878906 886.1391095 135.37695312 887.32559204 C135.24777979 891.00861561 135.12370795 894.69178919 135 898.375 C134.87572197 901.97906279 134.75037166 905.58308688 134.62475586 909.18710327 C134.54156062 911.57870177 134.45904149 913.97032388 134.37719727 916.36196899 C134.17456187 922.23613836 133.95906535 928.10933542 133.71484375 933.98193359 C133.6684375 935.09847321 133.62203125 936.21501282 133.57421875 937.36538696 C133.48646808 939.44748714 133.39679271 941.52950759 133.3046875 943.61141968 C132.9996822 950.82554824 132.92393768 958.02271198 133.03710938 965.24234009 C133.07434395 968.45001855 133.02325275 970.93024174 132 974 C131.79877882 976.91169085 131.64712005 979.80734621 131.53515625 982.72265625 C131.49769287 983.60370529 131.46022949 984.48475433 131.42163086 985.39250183 C131.34094537 987.29248126 131.26199982 989.19253521 131.18460083 991.09265137 C130.97915664 996.08965382 130.7541104 1001.08578044 130.53125 1006.08203125 C130.48662125 1007.08817474 130.44199249 1008.09431824 130.39601135 1009.13095093 C129.59562387 1027.15308333 129.59562387 1027.15308333 129.17453003 1035.08297729 C129.10057498 1036.51350684 129.03124571 1037.94428395 128.96682739 1039.37527466 C128.11857536 1058.07916285 128.11857536 1058.07916285 121 1065 C115.73994853 1067.93349025 111.8686646 1068.55892044 106 1068 C101.0146497 1066.20527389 97.15114232 1063.24365099 94 1059 C93.04533574 1056.27621288 92.83883144 1053.64742291 92.67578125 1050.77734375 C92.61014481 1049.98649887 92.54450836 1049.19565399 92.47688293 1048.38084412 C92.28431073 1045.92148369 92.13512693 1043.46313361 92 1041 C91.9574408 1040.27677551 91.91488159 1039.55355103 91.87103271 1038.80841064 C91.61499874 1034.27625642 91.43921746 1029.74296993 91.28164673 1025.20645142 C90.43373356 1001.39424625 89.12057711 977.60280416 87.8125 953.8125 C87.73505617 952.40241732 87.73505617 952.40241732 87.65604782 950.96384811 C85.65130969 914.50978773 83.46971092 878.06652682 81.25 841.625 C81.13371435 839.71418829 81.13371435 839.71418829 81.0150795 837.76477432 C80.56630712 830.39288654 80.11595506 823.02109801 79.66325569 815.6494503 C79.52517955 813.40028273 79.38737796 811.15109828 79.24987602 808.90189552 C78.89282275 803.06761057 78.52993325 797.23377919 78.15361023 791.40070343 C78.05612834 789.87720394 77.96071744 788.35356938 77.86811829 786.82976532 C77.75671301 785.00117951 77.63610978 783.17316023 77.51464844 781.34521484 C77.45452576 780.4033432 77.39440308 779.46147156 77.3324585 778.49105835 C76.76096486 774.20894795 75.51200255 771.53038196 73 768 C70.12752592 766.42376462 70.12752592 766.42376462 67 767 C62.1330197 770.42900885 61.01216209 774.38637442 60 780 C59.66656023 783.01870894 59.53788293 786.02793901 59.4375 789.0625 C59.40213135 789.9589624 59.3667627 790.8554248 59.33032227 791.77905273 C59.25387683 793.77181965 59.18174504 795.7647554 59.11328125 797.7578125 C58.99397515 801.17243525 58.85664849 804.58608053 58.71875 808 C58.0995349 824.20792872 57.90761343 840.3789984 58.03686523 856.59790039 C58.04113022 857.34489197 58.0453952 858.09188354 58.04978943 858.86151123 C58.0617632 860.89443653 58.07952016 862.92732541 58.09765625 864.96020508 C58 868 58 868 57 870 C56.82359546 871.73220177 56.70356451 873.47028115 56.61108398 875.20898438 C56.55109726 876.29771851 56.49111053 877.38645264 56.42930603 878.50817871 C56.36884598 879.69141724 56.30838593 880.87465576 56.24609375 882.09375 C56.18092056 883.31018188 56.11574738 884.52661377 56.04859924 885.77990723 C55.91121754 888.36227401 55.77602291 890.94475792 55.64282227 893.52734375 C55.43977238 897.45603302 55.22925416 901.38426711 55.01757812 905.3125 C54.88496845 907.82289303 54.75279338 910.33330906 54.62109375 912.84375 C54.55860947 914.01079468 54.49612518 915.17783936 54.43174744 916.38024902 C54.14010937 922.09632417 53.93840264 927.77054615 54.07582092 933.49377441 C53.99115161 936.29247929 53.62115567 939.02111525 53.25546741 941.79485321 C52.80249087 945.70486175 52.64358308 949.62827133 52.45922852 953.55859375 C52.39067657 954.94093956 52.39067657 954.94093956 52.32073975 956.35121155 C52.2223565 958.3410119 52.12529287 960.33087785 52.02942085 962.32080078 C51.87661863 965.48486969 51.71953624 968.64870025 51.56126404 971.8125 C51.11205334 980.80454865 50.66934145 989.79690853 50.23217773 998.78955078 C49.96380545 1004.30390161 49.68950472 1009.81793303 49.411726 1015.33181763 C49.30783592 1017.41737866 49.20615998 1019.50305136 49.10687447 1021.58883667 C48.65459714 1031.08283393 48.18650453 1040.57789231 47.17163086 1050.03125 C46.97977455 1051.84979492 46.97977455 1051.84979492 46.78404236 1053.70507812 C45.35729797 1059.70094206 41.99170796 1063.54420218 37 1067 C32.0000025 1068.66666583 27.71345913 1068.57623861 22.875 1066.5 C18.44810744 1064.06735807 15.85322733 1060.66886027 14 1056 C12.93057773 1049.88384296 12.62199496 1043.74790067 12.28125 1037.5546875 C12.15235722 1035.32161381 12.02345055 1033.08854091 11.89453125 1030.85546875 C11.69611467 1027.3553609 11.498887 1023.85518852 11.30224609 1020.35498047 C11.11066221 1016.96304241 10.91486224 1013.57136629 10.71875 1010.1796875 C10.661427 1009.13376434 10.604104 1008.08784119 10.54504395 1007.01022339 C10.4599054 1005.54312424 10.4599054 1005.54312424 10.37304688 1004.04638672 C10.32498901 1003.19035858 10.27693115 1002.33433044 10.22741699 1001.45236206 C10.04746704 998.98738064 10.04746704 998.98738064 9.47816467 996.56040955 C8.93281547 993.64024964 8.9268645 990.95647736 8.97631836 987.98706055 C9.02692732 981.37076687 8.75889472 974.81100367 8.37890625 968.20703125 C8.31468979 967.05377853 8.25047333 965.90052582 8.18431091 964.71232605 C8.0490944 962.30315018 7.9120384 959.89407689 7.77319336 957.48510742 C7.56086523 953.78400429 7.35726961 950.08248608 7.15429688 946.38085938 C7.02135466 944.03122045 6.88790964 941.6816099 6.75390625 939.33203125 C6.6934462 938.22382523 6.63298615 937.1156192 6.57069397 935.97383118 C6.51070724 934.95484238 6.45072052 933.93585358 6.38891602 932.88598633 C6.33784195 931.98809891 6.28676788 931.09021149 6.23414612 930.16511536 C6.12224953 927.95412059 6.12224953 927.95412059 5 926 C4.94057723 922.27122146 4.97893204 918.55621346 5.0390625 914.828125 C5.04679687 914.044375 5.05453125 913.260625 5.0625 912.453125 C5.07410156 911.74317383 5.08570312 911.03322266 5.09765625 910.30175781 C5.04618259 907.91832016 5.04618259 907.91832016 4.52734375 905.27832031 C3.87372297 901.21497781 3.68126712 897.20130416 3.5 893.09375 C3.45939453 892.25082397 3.41878906 891.40789795 3.37695312 890.53942871 C3.20439701 886.95507314 3.04008092 883.37035088 2.875 879.78564453 C2.75285435 877.1590359 2.6265191 874.53265103 2.5 871.90625 C2.44682617 870.70131897 2.44682617 870.70131897 2.39257812 869.4720459 C2.24013636 866.31439526 2.05753404 863.30395741 1.46875 860.19335938 C0.88833763 856.23930011 0.9810245 852.41345023 1.01409912 848.42224121 C0.98800769 842.08914012 0.56904733 835.77351613 0.1953125 829.453125 C0.11033722 827.9872893 0.02544922 826.52144854 -0.05935669 825.05560303 C-0.23673834 822.00647722 -0.41704073 818.95754004 -0.59912109 815.90869141 C-0.83083052 812.02036225 -1.05223765 808.13151951 -1.27113152 804.24245071 C-1.44267188 801.22396572 -1.62114625 798.20591912 -1.80151749 795.18795013 C-1.88609253 793.75450653 -1.96822432 792.3209164 -2.0477562 790.88718414 C-2.10712424 778.70878294 -2.10712424 778.70878294 -6.75 767.9375 C-9.96867409 766.5963858 -11.70911001 766.90303667 -15 768 C-20.25277276 773.25277276 -20.18892919 778.46175773 -20.5 785.56640625 C-20.56043236 786.8475103 -20.56043236 786.8475103 -20.62208557 788.15449524 C-20.75258581 790.95697639 -20.87659221 793.7596982 -21 796.5625 C-21.08846029 798.5086263 -21.17692057 800.4547526 -21.26538086 802.40087891 C-21.87298498 816.00294963 -22.32661512 829.60534246 -22.67358398 843.21630859 C-22.89592371 851.87397088 -23.23098154 860.51639038 -23.69555664 869.16430664 C-24.02540548 875.6033558 -24.04803798 882.01128553 -23.9375 888.45703125 C-23.99293051 891.5992485 -24.31696445 894.58938288 -24.74169922 897.69848633 C-25.29085628 902.5915899 -25.38613649 907.51956005 -25.5625 912.4375 C-25.62727539 914.02981445 -25.62727539 914.02981445 -25.69335938 915.65429688 C-25.92814329 921.91147445 -26.00780776 928.15014466 -25.97265625 934.41015625 C-25.93885978 942.30204453 -26.33982154 950.12544222 -26.875 958 C-27.95956874 974.83673215 -28.64812507 991.68477706 -29.30224609 1008.54296875 C-29.67183221 1018.0562338 -30.05149081 1027.56856401 -30.5078125 1037.078125 C-30.5450795 1037.88768646 -30.5823465 1038.69724792 -30.6207428 1039.53134155 C-31.47221525 1056.70446737 -31.47221525 1056.70446737 -37 1063 C-42.47560535 1067.13464078 -47.11568054 1068.88354902 -54 1068 C-59.23721469 1066.25741862 -63.09986106 1063.79638363 -66 1059 C-67.80552407 1053.66950463 -68.42825313 1048.7096614 -68.74609375 1043.14453125 C-68.80173996 1042.27332642 -68.85738617 1041.40212158 -68.91471863 1040.5045166 C-69.09703441 1037.60761401 -69.26747912 1034.71014824 -69.4375 1031.8125 C-69.56332056 1029.76780263 -69.68946746 1027.72312531 -69.81591797 1025.6784668 C-70.56568582 1013.35226222 -71.2143652 1001.02129401 -71.82421875 988.6875 C-71.87492555 987.66361962 -71.87492555 987.66361962 -71.92665672 986.61905479 C-72.29433959 979.18181529 -72.65244137 971.74421807 -72.99780273 964.3059082 C-73.05752762 963.04983765 -73.1172525 961.79376709 -73.17878723 960.49963379 C-73.29121403 958.13341861 -73.40042387 955.76704766 -73.50590515 953.4005127 C-73.58153435 951.82421082 -73.58153435 951.82421082 -73.65869141 950.21606445 C-73.70071686 949.30081497 -73.74274231 948.38556549 -73.78604126 947.44258118 C-73.98407236 945.18183202 -74.43769192 943.19060587 -75 941 C-75.11874224 938.2393349 -75.18596011 935.49991135 -75.2109375 932.73828125 C-75.23721929 930.93838914 -75.26393835 929.13850337 -75.29101562 927.33862305 C-75.30430908 926.36388031 -75.31760254 925.38913757 -75.33129883 924.38485718 C-75.68329159 899.63843866 -76.55956588 874.9170905 -77.5 850.1875 C-77.53304985 849.31755527 -77.5660997 848.44761055 -77.60015106 847.55130386 C-77.82602427 841.61098092 -78.05341452 835.67071671 -78.28125 829.73046875 C-78.34402375 828.0918479 -78.40679336 826.45322689 -78.46955872 824.81460571 C-78.53072736 823.2187702 -78.59189979 821.62293483 -78.65307617 820.02709961 C-78.68262422 819.25561207 -78.71217226 818.48412453 -78.7426157 817.68925858 C-78.88001448 814.10650592 -79.01836015 810.52379699 -79.15957642 806.94119263 C-79.73166758 792.37326236 -80.18663027 777.8227235 -80.18530273 763.24243164 C-80.18752294 760.53451533 -80.20593457 757.82698779 -80.22460938 755.11914062 C-80.27822229 738.60821402 -79.26740946 722.08055937 -75.9375 705.875 C-75.72762451 704.85059814 -75.51774902 703.82619629 -75.30151367 702.77075195 C-68.09577624 669.54192229 -52.44868724 642.47718592 -34.0625 614.375 C-29.7190445 607.7241234 -25.53841724 601.12231542 -22 594 C-21.44965088 592.93289795 -21.44965088 592.93289795 -20.88818359 591.84423828 C-14.2421244 578.91774392 -9.32512633 566.15421486 -6 552 C-5.83419434 551.29568848 -5.66838867 550.59137695 -5.49755859 549.86572266 C-1.39037195 531.77380814 -0.69606467 513.19017384 -0.76622009 494.71098328 C-0.76606353 492.76208639 -0.76501973 490.81318942 -0.76317984 488.8642934 C-0.76067664 483.57318243 -0.7704997 478.28215887 -0.7825278 472.99106371 C-0.79331207 467.25851064 -0.79232978 461.52595752 -0.7928009 455.793396 C-0.79515401 445.87365637 -0.80469374 435.95394506 -0.81910515 426.03421593 C-0.83990105 411.64875285 -0.84848844 397.26330171 -0.8540265 382.8778256 C-0.86326804 359.47558989 -0.88067793 336.0733682 -0.90405273 312.67114258 C-0.90546029 311.25884554 -0.90686767 309.8465485 -0.9082749 308.43425146 C-0.9089725 307.73455311 -0.9096701 307.03485476 -0.91038884 306.31395343 C-0.91391682 302.77517957 -0.9174411 299.2364057 -0.92095947 295.69763184 C-0.92165793 294.99614974 -0.92235639 294.29466765 -0.92307602 293.57192852 C-0.93922052 277.31659 -0.9528612 261.06124974 -0.96557617 244.8059082 C-0.96612229 244.11031623 -0.9666684 243.41472425 -0.96723107 242.69805373 C-0.97971611 226.76675816 -0.99097245 210.83546234 -0.99983311 194.90416431 C-1.0002085 194.2314091 -1.00058389 193.55865389 -1.00097066 192.86551216 C-1.00434004 186.80766673 -1.00765906 180.74982128 -1.0107208 174.69197569 C-1.01866976 159.03794275 -1.03034545 143.38392473 -1.04920948 127.72990093 C-1.06089629 117.88647775 -1.06900872 108.04305572 -1.07447498 98.19962712 C-1.07776215 92.54604966 -1.08266052 86.89248691 -1.09228897 81.2389164 C-1.13726372 54.14148316 -0.82712468 27.08541818 0 0 Z M-55 695 C-62.62611711 713.74879385 -63.45172074 731.89702284 -63.25 751.9375 C-63.2380786 754.21654843 -63.22701659 756.49560151 -63.21679688 758.7746582 C-63.1382357 772.30300193 -62.89768251 785.81177651 -62.21875 799.32421875 C-61.99289174 804.22738828 -61.98450965 809.11629743 -62.00401306 814.02401733 C-62.02888047 824.09971399 -61.81468346 834.1732692 -61.62768555 844.24682617 C-61.56231359 847.82269646 -61.5027918 851.39863606 -61.44335938 854.97460938 C-61.40140069 857.28125656 -61.35909506 859.58789746 -61.31640625 861.89453125 C-61.29969376 862.94687454 -61.28298126 863.99921783 -61.26576233 865.08345032 C-61.15000128 870.93746382 -60.78604808 876.70434252 -60.21180725 882.5304718 C-59.93363119 885.77381508 -59.93919029 888.97691602 -59.99609375 892.23046875 C-60.08673384 901.91873033 -59.63861314 911.57970316 -59.20043945 921.25610352 C-59.06194273 924.32484783 -58.93001397 927.39382597 -58.79882812 930.46289062 C-58.71132454 932.45053791 -58.623447 934.43816877 -58.53515625 936.42578125 C-58.49656998 937.32500809 -58.4579837 938.22423492 -58.41822815 939.15071106 C-58.1281711 945.45379659 -57.61707747 951.72076696 -57 958 C-56.67 958 -56.34 958 -56 958 C-54.74360601 935.18524386 -55.20435539 912.49659529 -55.78042603 889.66870117 C-56.70251625 852.82532032 -57.24816489 815.98399105 -57.30550003 779.12911606 C-57.31238806 776.05003837 -57.32537715 772.97104662 -57.34030151 769.89199829 C-57.45445931 744.76480694 -56.6097425 719.99981057 -54 695 C-54.33 695 -54.66 695 -55 695 Z " fill="#080706" transform="translate(81,0)"/>
<path d="M0 0 C1.8441877 -0.01429802 1.8441877 -0.01429802 3.72563171 -0.02888489 C5.07335437 -0.02862311 6.42107705 -0.02768437 7.76879883 -0.02612305 C9.16107815 -0.03001509 10.5533563 -0.03435081 11.94563293 -0.03910828 C14.87362494 -0.04657949 17.80149649 -0.0462773 20.72949219 -0.04101562 C24.43518399 -0.03528626 28.14036524 -0.05198626 31.84597301 -0.0753603 C34.72983057 -0.0903037 37.61357188 -0.09094075 40.49746132 -0.08785057 C42.51323792 -0.08859782 44.52899675 -0.1023377 46.54472351 -0.11653137 C64.88637373 -0.02660457 81.41452013 3.7535974 96.03833008 15.2746582 C97.21395508 16.18538086 97.21395508 16.18538086 98.41333008 17.11450195 C108.54144998 25.48046586 115.05341174 37.26033516 117.03833008 50.2746582 C118.0434626 65.50537223 116.74494328 80.51101667 106.96020508 92.9074707 C104.72811501 95.45083864 102.42874225 97.88008155 100.03833008 100.2746582 C99.4840332 100.84055664 98.92973633 101.40645508 98.35864258 101.98950195 C93.06466541 106.95425168 86.45536904 110.01306547 80.03833008 113.2746582 C81.53369501 117.71921509 83.97963669 121.14604579 86.78833008 124.8371582 C92.43308639 132.39738543 97.86301332 140.09242822 103.24536133 147.84106445 C105.96052652 151.747585 108.71478881 155.62366337 111.48754883 159.48950195 C112.22465088 160.5259082 112.96175293 161.56231445 113.72119141 162.63012695 C115.15853644 164.6509582 116.60470912 166.66554592 118.06054688 168.6730957 C118.71063721 169.59219727 119.36072754 170.51129883 120.03051758 171.45825195 C120.90232666 172.67339478 120.90232666 172.67339478 121.79174805 173.91308594 C123.22901719 176.63590311 123.44723709 178.23847577 123.03833008 181.2746582 C119.55420344 184.75878484 114.50920958 183.68615581 109.78833008 183.7121582 C108.75063477 183.7450293 107.71293945 183.77790039 106.64379883 183.81176758 C101.87604061 183.84525758 98.8751219 183.76769752 94.71020508 181.3137207 C91.1721699 177.68268061 88.36545201 173.4010712 85.53833008 169.2121582 C84.30156995 167.41252849 83.06458437 165.61305369 81.82739258 163.8137207 C81.19994141 162.89494141 80.57249023 161.97616211 79.92602539 161.02954102 C76.95428724 156.69261742 73.93309376 152.39071054 70.91333008 148.0871582 C70.34074463 147.26868408 69.76815918 146.45020996 69.17822266 145.60693359 C66.30505525 141.50025549 63.42306115 137.40010956 60.52661133 133.30981445 C59.97054199 132.52437256 59.41447266 131.73893066 58.84155273 130.9296875 C57.78913088 129.44456092 56.73548112 127.96030348 55.68041992 126.47705078 C52.14743106 121.49286016 52.14743106 121.49286016 51.03833008 119.2746582 C40.14833008 118.9446582 29.25833008 118.6146582 18.03833008 118.2746582 C18.08473633 122.71547852 18.13114258 127.15629883 18.17895508 131.73168945 C18.20467547 135.27064309 18.22636778 138.80957035 18.24533081 142.34856415 C18.26646194 146.08559393 18.29470265 149.82226141 18.34008789 153.55908203 C18.38352119 157.15767192 18.40746164 160.75591029 18.41783905 164.35474205 C18.42523511 165.72832462 18.43967808 167.10188774 18.46125031 168.47532082 C18.4902445 170.39758192 18.49196363 172.32019609 18.49243164 174.24267578 C18.50131409 175.33743729 18.51019653 176.43219879 18.51934814 177.56013489 C18.03833008 180.2746582 18.03833008 180.2746582 16.15010071 182.12838745 C13.69449636 183.46129142 12.16016982 183.64833366 9.37817383 183.63793945 C8.50225586 183.63729492 7.62633789 183.63665039 6.72387695 183.63598633 C5.36359375 183.61181641 5.36359375 183.61181641 3.97583008 183.5871582 C3.06510742 183.59038086 2.15438477 183.59360352 1.21606445 183.59692383 C-5.56067099 183.54199082 -5.56067099 183.54199082 -8.96166992 181.2746582 C-9.33919334 178.23863983 -9.33919334 178.23863983 -9.34262085 174.2520752 C-9.34730082 173.5208216 -9.35198079 172.78956801 -9.35680258 172.03615522 C-9.36881812 169.57315682 -9.35927015 167.11070812 -9.34985352 164.64770508 C-9.35391632 162.88712742 -9.35925655 161.1265523 -9.36578369 159.36598206 C-9.37949781 154.57473348 -9.37414181 149.78367801 -9.36464643 144.99242592 C-9.35707099 139.98717336 -9.36408954 134.98193775 -9.36880493 129.97668457 C-9.37426867 121.56995666 -9.36705468 113.16330772 -9.3527832 104.7565918 C-9.33645551 95.02604771 -9.34174358 85.29569216 -9.35826242 75.56515265 C-9.3718597 67.22288313 -9.37380557 58.88067051 -9.36594641 50.5383935 C-9.3612602 45.55058354 -9.36067097 40.56286231 -9.37055588 35.57505798 C-9.37919775 30.88666357 -9.37325477 26.19851314 -9.35587311 21.51014519 C-9.35189334 19.78555139 -9.35306761 18.06093718 -9.3596611 16.33635139 C-9.36780829 13.98970052 -9.35763892 11.64384108 -9.34262085 9.29724121 C-9.34148977 7.98167488 -9.3403587 6.66610855 -9.33919334 5.31067657 C-9.15231925 3.80784748 -9.15231925 3.80784748 -8.96166992 2.2746582 C-5.48169413 -0.04532566 -4.10962607 0.01749916 0 0 Z M18.03833008 21.2746582 C18.03833008 46.3546582 18.03833008 71.4346582 18.03833008 97.2746582 C24.37020508 97.3777832 30.70208008 97.4809082 37.22583008 97.5871582 C40.18072388 97.65543823 40.18072388 97.65543823 43.1953125 97.72509766 C56.55322657 97.90473177 67.51089742 96.16937201 78.10473633 87.2277832 C85.75207168 79.50320204 89.69567031 70.24207342 90.22583008 59.4621582 C90.00300995 47.7418196 85.09884441 38.75953594 77.20239258 30.28637695 C61.78597896 15.95523433 36.36702499 21.2746582 18.03833008 21.2746582 Z " fill="#000000" transform="translate(471.961669921875,714.725341796875)"/>
<path d="M0 0 C20.06305771 16.10442749 31.1558964 38.80093014 34.53125 64.0390625 C37.72495394 93.56872661 33.47603398 124.77002286 14.66992188 148.69189453 C4.00757541 161.54965302 -9.34839607 171.58865285 -26 175 C-31.06345852 175.46365402 -36.10660575 175.53390557 -41.1875 175.5 C-41.87564789 175.49856995 -42.56379578 175.49713989 -43.27279663 175.4956665 C-53.63313022 175.44224483 -62.62377642 174.81550613 -72 170 C-73.36125 169.33097656 -73.36125 169.33097656 -74.75 168.6484375 C-95.17960185 157.499356 -107.49904309 136.71822633 -114.02734375 115.07421875 C-116.80378538 104.06481767 -117.40489074 93.23378327 -117.375 81.9375 C-117.37445618 81.16442505 -117.37391235 80.3913501 -117.37335205 79.59484863 C-117.33488241 67.69757364 -116.75615358 56.38770371 -113 45 C-112.78037598 44.33178223 -112.56075195 43.66356445 -112.33447266 42.97509766 C-105.3229162 22.46641907 -92.46718223 4.03059221 -73.171875 -6.45703125 C-50.67860377 -17.39895506 -19.94176899 -15.36598324 0 0 Z M-72.28125 21.7734375 C-89.60406642 44.21435878 -92.55950504 72.52859879 -89.53125 99.94921875 C-86.99253861 118.09389678 -79.48039349 136.24059548 -65 148 C-55.3505542 154.1282971 -44.61295158 156.80933947 -33.28515625 154.4296875 C-18.64012775 150.24539364 -9.20437693 140.87391365 -1.94580078 127.83056641 C10.41116233 103.9140694 10.89015132 73.69462728 3.23071289 48.30151367 C-1.52220618 33.7206384 -9.51028535 19.77695759 -23.3203125 12.18359375 C-40.44981937 4.61764538 -59.34548852 7.92240988 -72.28125 21.7734375 Z " fill="#000000" transform="translate(387,725)"/>
<path d="M0 0 C0.9000325 -0.00845947 1.800065 -0.01691895 2.72737122 -0.02563477 C3.70723495 -0.01956207 4.68709869 -0.01348938 5.69665527 -0.00723267 C6.73444626 -0.01248962 7.77223724 -0.01774658 8.84147644 -0.02316284 C12.27447527 -0.03637467 15.70701104 -0.02762029 19.14001465 -0.01748657 C21.52368255 -0.01950696 23.90734984 -0.0224181 26.29101562 -0.02618408 C31.28777957 -0.03060905 36.28438267 -0.02417065 41.28112793 -0.01016235 C47.69064384 0.00692942 54.0997829 -0.00291081 60.50928497 -0.02087975 C65.43173062 -0.03171279 70.35408671 -0.0282734 75.27653503 -0.02049637 C77.64007105 -0.01849304 80.00361516 -0.02095825 82.36714172 -0.02793503 C85.66860539 -0.0355414 88.96945609 -0.02395609 92.27087402 -0.00723267 C93.25073776 -0.01330536 94.2306015 -0.01937805 95.24015808 -0.02563477 C96.14019058 -0.01717529 97.04022308 -0.00871582 97.9675293 0 C98.74770164 0.00113108 99.52787399 0.00226215 100.33168793 0.00342751 C103.09228836 0.48769989 104.47059349 1.4526557 106.48376465 3.38095093 C107.01501465 6.59579468 107.01501465 6.59579468 106.98376465 10.31845093 C106.9992334 12.15729858 106.9992334 12.15729858 107.01501465 14.03329468 C106.37565839 18.06217936 105.74121441 18.9887299 102.48376465 21.38095093 C99.62972965 21.75502417 97.16809702 21.88819491 94.31872559 21.83505249 C93.49884155 21.8356366 92.67895752 21.8362207 91.83422852 21.83682251 C89.12843254 21.83403922 86.42374279 21.80293641 83.71813965 21.77157593 C81.84056195 21.76411439 79.96297646 21.75842105 78.08538818 21.75442505 C73.14667207 21.73916184 68.20842745 21.69987406 63.26989746 21.65560913 C57.34284204 21.60747206 51.41562885 21.58912569 45.48843384 21.5657959 C36.48654964 21.52702349 27.48569974 21.45037459 18.48376465 21.38095093 C18.48376465 40.85095093 18.48376465 60.32095093 18.48376465 80.38095093 C37.67589006 80.18319112 37.67589006 80.18319112 56.86730957 79.93051147 C59.27460626 79.91590744 61.68191529 79.90316658 64.0892334 79.89266968 C65.96173767 79.85429993 65.96173767 79.85429993 67.87207031 79.81515503 C77.69049204 79.81019973 77.69049204 79.81019973 80.78161621 82.72567749 C82.80536246 85.88262875 83.1264556 87.71221334 83.04626465 91.44345093 C83.04755371 92.46567749 83.04884277 93.48790405 83.0501709 94.54110718 C82.33828623 98.11034962 81.3166059 99.13756673 78.48376465 101.38095093 C75.72491455 101.86196899 75.72491455 101.86196899 72.52185059 101.83505249 C70.69532959 101.83432739 70.69532959 101.83432739 68.83190918 101.83358765 C66.91934326 101.80289185 66.91934326 101.80289185 64.96813965 101.77157593 C63.79267578 101.76754761 62.61721191 101.76351929 61.40612793 101.7593689 C57.01518139 101.73844077 52.62445735 101.68259538 48.23376465 101.63095093 C38.41626465 101.54845093 28.59876465 101.46595093 18.48376465 101.38095093 C18.48376465 121.51095093 18.48376465 141.64095093 18.48376465 162.38095093 C27.94290527 162.3287439 27.94290527 162.3287439 37.59313965 162.27548218 C41.58533639 162.26015573 45.57749693 162.24571402 49.56970215 162.23446655 C55.90799481 162.21652481 62.24615761 162.19528705 68.58435059 162.15463257 C73.69366124 162.12206504 78.80283265 162.10410335 83.91223907 162.0963192 C85.86271609 162.09077102 87.81318538 162.07993692 89.76360321 162.06376076 C92.4930831 162.04202118 95.22198572 162.03898255 97.95153809 162.04037476 C98.76002197 162.02958893 99.56850586 162.0188031 100.40148926 162.00769043 C103.64836984 162.02564098 106.07363247 162.16973991 108.98602295 163.66957092 C111.4795043 166.51872317 111.01964829 169.85403495 110.92126465 173.44345093 C110.92835449 174.17628296 110.93544434 174.90911499 110.94274902 175.66415405 C110.9173584 177.79110718 110.9173584 177.79110718 110.48376465 181.38095093 C107.29657609 183.5057433 106.50605956 183.63257603 102.85327148 183.64164734 C101.90268356 183.64873215 100.95209564 183.65581696 99.97270203 183.66311646 C98.41100029 183.65940033 98.41100029 183.65940033 96.81774902 183.65560913 C95.17109001 183.66327553 95.17109001 183.66327553 93.49116516 183.6710968 C89.8532266 183.68502609 86.21547675 183.68403366 82.57751465 183.68173218 C80.05550058 183.68561694 77.53348717 183.68995115 75.01147461 183.69471741 C69.72210297 183.70218657 64.43280098 183.70202083 59.14343262 183.69662476 C53.02728315 183.69058126 46.91136352 183.70290509 40.79525328 183.72419482 C34.9128726 183.74391885 29.03056333 183.74698661 23.14814758 183.7434597 C20.64422567 183.74397438 18.14030019 183.74923935 15.63639832 183.75927162 C12.14067689 183.77155934 8.64549261 183.76489044 5.14978027 183.75326538 C3.58807854 183.76473099 3.58807854 183.76473099 1.99482727 183.77642822 C1.04423935 183.76941391 0.09365143 183.7623996 -0.88574219 183.75517273 C-2.12570072 183.75542434 -2.12570072 183.75542434 -3.39070892 183.75568104 C-5.51623535 183.38095093 -5.51623535 183.38095093 -7.28141117 182.29882336 C-9.18209693 179.34676518 -8.8973942 176.80586715 -8.90391541 173.32077026 C-8.90930094 172.59753492 -8.91468648 171.87429957 -8.92023522 171.12914801 C-8.93457336 168.69923869 -8.92739694 166.26986966 -8.92028809 163.8399353 C-8.92598857 162.10053569 -8.93295158 160.36113982 -8.94108582 158.62174988 C-8.9590669 153.89248438 -8.95783971 149.16340391 -8.95214343 144.43411446 C-8.94905906 140.49001709 -8.95513556 136.54595565 -8.96118218 132.60186338 C-8.97524173 123.30016831 -8.97365392 113.99856506 -8.96228027 104.6968689 C-8.95079411 95.0906831 -8.96487984 85.48477632 -8.99167675 75.8786273 C-9.01380353 67.63907764 -9.02047807 59.39961575 -9.01460034 51.16003847 C-9.01122272 46.23533226 -9.01369912 41.31080498 -9.03085136 36.38612366 C-9.04627066 31.75675505 -9.0424211 27.12780124 -9.02354622 22.49844933 C-9.01984653 20.79684722 -9.02300874 19.09521472 -9.03343201 17.39364052 C-9.04655012 15.0756532 -9.03517821 12.75905784 -9.0174408 10.44113159 C-9.01723151 9.14253456 -9.01702223 7.84393753 -9.0168066 6.50598907 C-8.51623535 3.38095093 -8.51623535 3.38095093 -6.76717472 1.46349907 C-4.29226619 0.27323705 -2.73482019 0.00396488 0 0 Z " fill="#000000" transform="translate(825.5162353515625,714.6190490722656)"/>
<path d="M0 0 C1.84549438 0.0153479 1.84549438 0.0153479 3.72827148 0.03100586 C19.276234 0.39378137 32.20332813 5.12870847 43.875 15.6875 C46.1875 18.5625 46.1875 18.5625 46.58984375 21.05078125 C46.1875 23.5625 46.1875 23.5625 44.4296875 25.22265625 C43.64851562 25.68542969 42.86734375 26.14820313 42.0625 26.625 C40.825 27.37136719 40.825 27.37136719 39.5625 28.1328125 C38.386875 28.84050781 38.386875 28.84050781 37.1875 29.5625 C36.15625 30.366875 35.125 31.17125 34.0625 32 C31.1875 33.5625 31.1875 33.5625 27.75 33.6875 C23.80348491 32.44123208 22.03122748 30.89187079 19.078125 28.125 C11.54315832 21.89775481 2.76827391 21.21727467 -6.58203125 22.0625 C-12.46118938 22.97245434 -16.72013431 25.05104657 -20.6875 29.5 C-24.26294535 34.65284771 -25.3479138 38.24461713 -24.8125 44.5625 C-23.42009042 50.27355493 -21.18085533 53.54833564 -16.8125 57.5625 C-16.8125 58.2225 -16.8125 58.8825 -16.8125 59.5625 C-16.0390625 59.94535156 -16.0390625 59.94535156 -15.25 60.3359375 C-13.36688866 61.28352878 -11.49375434 62.25096281 -9.625 63.2265625 C-0.41893649 67.98680079 8.95603388 71.96995754 18.6015625 75.75 C27.11582491 79.09055717 35.33634059 82.85779761 43.1875 87.5625 C43.78046875 87.90539062 44.3734375 88.24828125 44.984375 88.6015625 C54.66974339 94.77709556 60.63596831 104.58181887 63.71362305 115.41430664 C66.78724911 129.34776141 64.23282497 143.90113221 57.1875 156.0625 C45.78603451 172.92107718 29.14558588 183.52639594 9.1875 187.5625 C4.43901732 187.94786897 -0.30183339 187.97611745 -5.06347656 187.98803711 C-7.28045732 187.99982956 -9.49455049 188.04901257 -11.7109375 188.09960938 C-32.19284744 188.33186127 -49.69768472 180.27241258 -64.8125 166.5625 C-65.740625 165.77101563 -66.66875 164.97953125 -67.625 164.1640625 C-69.8125 161.5625 -69.8125 161.5625 -70.54296875 158.55078125 C-69.65957999 154.93691814 -68.17916247 153.82948204 -65.08007812 151.88476562 C-64.43490234 151.51029297 -63.78972656 151.13582031 -63.125 150.75 C-62.49916016 150.35619141 -61.87332031 149.96238281 -61.22851562 149.55664062 C-57.86846518 147.50542659 -54.83213633 145.75257037 -50.8125 145.5625 C-47.62736415 147.8186379 -45.17923434 150.17594219 -42.5 153 C-31.78412365 163.2174635 -18.9808062 166.91389849 -4.4453125 166.77734375 C8.79162167 165.99451431 20.06204543 159.98714981 29.1875 150.5625 C34.46332272 144.03714032 36.85153161 136.46951553 36.52734375 128.10546875 C35.33631777 119.19330883 31.0948215 113.11733897 24.1875 107.5625 C14.93859789 100.77997179 3.67636166 96.80718102 -6.78320312 92.27539062 C-42.36922139 76.7750068 -42.36922139 76.7750068 -50.1015625 57.609375 C-53.4849237 47.86826911 -52.27256811 37.10662839 -48.8125 27.5625 C-47.07119382 24.33352328 -45.07516238 21.44476675 -42.8125 18.5625 C-42.21308594 17.7478125 -41.61367188 16.933125 -40.99609375 16.09375 C-38.50831862 13.20988903 -35.92516248 11.19335898 -32.8125 9 C-31.265625 7.88431641 -31.265625 7.88431641 -29.6875 6.74609375 C-20.4006662 1.06014748 -10.69411307 -0.13412533 0 0 Z " fill="#000000" transform="translate(696.8125,712.4375)"/>
<path d="M0 0 C1.23943359 -0.00580078 1.23943359 -0.00580078 2.50390625 -0.01171875 C3.35855469 -0.00011719 4.21320312 0.01148438 5.09375 0.0234375 C5.94839844 0.01183594 6.80304687 0.00023437 7.68359375 -0.01171875 C8.92302734 -0.00591797 8.92302734 -0.00591797 10.1875 0 C11.31188477 0.00507568 11.31188477 0.00507568 12.45898438 0.01025391 C15.30416216 0.52761812 16.53258379 1.36018923 18.59375 3.3984375 C19.08594131 6.25074291 19.08594131 6.25074291 19.07476807 9.79545593 C19.07818577 10.44730403 19.08160347 11.09915213 19.08512473 11.7707532 C19.09172357 13.95918577 19.06969689 16.14639691 19.04785156 18.3347168 C19.04672351 19.90164155 19.04735613 21.46856842 19.04962158 23.03549194 C19.0507713 27.29362742 19.02722055 31.55131404 18.99932575 35.80934501 C18.97435491 40.25762402 18.97197352 44.70591282 18.96722412 49.1542511 C18.95478161 57.57970927 18.92194283 66.00496034 18.88182616 74.43032724 C18.83714805 84.02147891 18.81513139 93.61264038 18.79504442 103.20387018 C18.75321126 122.9355083 18.68283449 142.66695987 18.59375 162.3984375 C19.67258957 162.39177567 20.75142914 162.38511383 21.86296082 162.37825012 C32.0302271 162.31743385 42.19745648 162.27246234 52.3648634 162.24300098 C57.59203358 162.22734542 62.81905691 162.20610898 68.04614258 162.17211914 C73.09061947 162.13952204 78.13495511 162.12158366 83.17952919 162.11380577 C85.10406022 162.10826291 87.02858353 162.09743909 88.95305443 162.08124733 C91.64880451 162.05946846 94.34397101 162.05647077 97.03979492 162.05786133 C97.83533279 162.0470755 98.63087067 162.03628967 99.45051575 162.025177 C103.97167783 162.05041062 107.08595072 162.42837515 110.59375 165.3984375 C111.06289905 168.13925566 111.2077178 170.17875133 111.09375 172.8984375 C111.09761719 173.91357422 111.09761719 173.91357422 111.1015625 174.94921875 C111.00516285 179.83668106 111.00516285 179.83668106 109.35385895 182.09142494 C107.08511718 183.77613542 105.77495483 183.77554123 102.96325684 183.77938843 C102.01266891 183.7878479 101.06208099 183.79630737 100.08268738 183.80502319 C99.04155289 183.7989505 98.0004184 183.79287781 96.92773438 183.78662109 C95.28107536 183.79450653 95.28107536 183.79450653 93.60115051 183.80255127 C89.96312337 183.81578282 86.3255318 183.80700172 82.6875 183.796875 C80.1654858 183.79889482 77.64347216 183.80180548 75.12145996 183.80557251 C69.83205067 183.81000016 64.54279829 183.8038356 59.25341797 183.78955078 C53.13725576 183.7732239 47.02139356 183.77851234 40.90523863 183.79503 C35.02284462 183.8102808 29.1405439 183.80867111 23.25813293 183.7998848 C20.75421609 183.79787947 18.25029162 183.80035365 15.74638367 183.80732346 C12.25063616 183.81491797 8.7554697 183.80336114 5.25976562 183.78662109 C4.21863113 183.79269379 3.17749664 183.79876648 2.10481262 183.80502319 C1.1542247 183.79656372 0.20363678 183.78810425 -0.77575684 183.77938843 C-1.60239586 183.77825735 -2.42903488 183.77712627 -3.28072357 183.77596092 C-5.40625 183.3984375 -5.40625 183.3984375 -7.17142582 182.31588936 C-9.07231381 179.36416452 -8.78740925 176.82314002 -8.79393005 173.33825684 C-8.79931559 172.61502149 -8.80470113 171.89178615 -8.81024987 171.14663458 C-8.82458801 168.71672527 -8.81741158 166.28735623 -8.81030273 163.85742188 C-8.81600322 162.11802226 -8.82296622 160.37862639 -8.83110046 158.63923645 C-8.84908154 153.90997095 -8.84785435 149.18089048 -8.84215808 144.45160103 C-8.8390737 140.50750366 -8.84515021 136.56344222 -8.85119683 132.61934996 C-8.86525638 123.31765489 -8.86366857 114.01605163 -8.85229492 104.71435547 C-8.84080876 95.10816967 -8.85489449 85.5022629 -8.8816914 75.89611387 C-8.90381818 67.65656421 -8.91049272 59.41710232 -8.90461498 51.17752504 C-8.90123737 46.25281883 -8.90371377 41.32829155 -8.92086601 36.40361023 C-8.93628531 31.77424162 -8.93243574 27.14528781 -8.91356087 22.5159359 C-8.90986118 20.81433379 -8.91302339 19.11270129 -8.92344666 17.41112709 C-8.93656477 15.09313977 -8.92519286 12.77654441 -8.90745544 10.45861816 C-8.90724616 9.16002113 -8.90703688 7.8614241 -8.90682125 6.52347565 C-8.40625 3.3984375 -8.40625 3.3984375 -6.50834751 1.48143768 C-4.14741729 0.26508695 -2.6447211 0.01193877 0 0 Z " fill="#000000" transform="translate(1004.40625,714.6015625)"/>
<path d="M0 0 C0.33 0 0.66 0 1 0 C1.80493739 22.9849859 2.60750873 45.97005288 3.4065094 68.95524597 C3.74163094 78.5933934 4.07789139 88.23149769 4.41759109 97.8694849 C4.63329947 103.99221527 4.84652528 110.11502897 5.05865479 116.23788452 C5.1436316 118.67787849 5.22950829 121.1178413 5.31634521 123.55776978 C5.74836246 135.70960405 6.14472611 147.83929555 6 160 C5.195625 159.979375 4.39125 159.95875 3.5625 159.9375 C1.06645115 159.70366379 1.06645115 159.70366379 0 161 C-0.23427778 163.01594582 -0.41336124 165.038474 -0.5625 167.0625 C-0.64628906 168.16722656 -0.73007812 169.27195312 -0.81640625 170.41015625 C-0.87699219 171.26480469 -0.93757813 172.11945313 -1 173 C-1.33 173 -1.66 173 -2 173 C-2.34612238 157.68777112 -2.67879867 142.37527214 -3 127.0625 C-3.0237545 125.93041611 -3.047509 124.79833221 -3.07198334 123.63194275 C-3.69375007 93.83715676 -4.19933069 64.05196002 -4.125 34.25 C-4.12328796 33.5583437 -4.12157593 32.86668739 -4.11981201 32.15407181 C-4.09829275 24.10260023 -4.06037432 16.05127822 -4 8 C-3.67 8 -3.34 8 -3 8 C-3 11.3 -3 14.6 -3 18 C-2.34 17.67 -1.68 17.34 -1 17 C-0.67 11.39 -0.34 5.78 0 0 Z " fill="#0D0C0A" transform="translate(27,756)"/>
<path d="M0 0 C0.33 0 0.66 0 1 0 C1.2910335 7.14494269 1.57498867 14.29014396 1.85449219 21.43554688 C1.94994641 23.85585594 2.04690043 26.27610641 2.14550781 28.69628906 C2.77353196 44.14055635 3.14179179 59.54272552 3 75 C2.34 74.01 1.68 73.02 1 72 C0.34 72 -0.32 72 -1 72 C-1.33 74.97 -1.66 77.94 -2 81 C-1.34 81.33 -0.68 81.66 0 82 C-0.66 82 -1.32 82 -2 82 C-2 94.87 -2 107.74 -2 121 C-2.33 121 -2.66 121 -3 121 C-3.76219949 83.3256554 -4.15339965 45.68309298 -4 8 C-3.67 8 -3.34 8 -3 8 C-3 11.3 -3 14.6 -3 18 C-2.34 17.67 -1.68 17.34 -1 17 C-0.67 11.39 -0.34 5.78 0 0 Z " fill="#191614" transform="translate(27,756)"/>
<path d="M0 0 C2.31 0 4.62 0 7 0 C6.67 0.66 6.34 1.32 6 2 C5.95977609 4.3329866 5.95679753 6.66706666 6 9 C5.01 9.33 4.02 9.66 3 10 C1.59087904 12.81824192 1.88816447 15.17251282 1.90234375 18.3203125 C1.90556641 19.57714844 1.90878906 20.83398438 1.91210938 22.12890625 C1.92048828 23.44761719 1.92886719 24.76632813 1.9375 26.125 C1.94251511 27.46484211 1.94707799 28.804686 1.95117188 30.14453125 C1.96298914 33.42973206 1.97946383 36.71484397 2 40 C1.01 40.495 1.01 40.495 0 41 C0 27.47 0 13.94 0 0 Z " fill="#211D19" transform="translate(81,0)"/>
<path d="M0 0 C0.66 0 1.32 0 2 0 C2.1986252 3.99952782 2.38188092 7.99962178 2.5625 12 C2.61857422 13.12535156 2.67464844 14.25070313 2.73242188 15.41015625 C2.99510621 21.39935908 3.18353939 27.10356422 2 33 C1.01 33.495 1.01 33.495 0 34 C0 22.78 0 11.56 0 0 Z " fill="#27231F" transform="translate(124,0)"/>
<path d="M0 0 C0.928125 0.2784375 0.928125 0.2784375 1.875 0.5625 C4.04160178 1.23686176 4.04160178 1.23686176 6 0 C7.64006048 6.66957927 8.51358785 13.15182898 9 20 C6.2874505 17.2874505 5.29615008 14.07647817 3.9375 10.5625 C3.5343457 9.5405957 3.5343457 9.5405957 3.12304688 8.49804688 C2.01737518 5.68285785 0.95657283 2.86971848 0 0 Z " fill="#251F1B" transform="translate(182,708)"/>
<path d="M0 0 C1.2065625 0.0309375 1.2065625 0.0309375 2.4375 0.0625 C2.1075 0.7225 1.7775 1.3825 1.4375 2.0625 C1.39727609 4.3954866 1.39429753 6.72956666 1.4375 9.0625 C0.4475 9.3925 -0.5425 9.7225 -1.5625 10.0625 C-2.2225 10.7225 -2.8825 11.3825 -3.5625 12.0625 C-3.58937279 10.25007948 -3.60883715 8.43754767 -3.625 6.625 C-3.63660156 5.61566406 -3.64820312 4.60632813 -3.66015625 3.56640625 C-3.52706167 0.15386128 -3.42090834 0.08343679 0 0 Z " fill="#161412" transform="translate(85.5625,-0.0625)"/>
<path d="M0 0 C3.45015205 4.60020273 3.22331682 6.88234832 2.6875 12.25 C2.62626953 12.99507812 2.56503906 13.74015625 2.50195312 14.5078125 C2.3492857 16.33982155 2.17660246 18.17014316 2 20 C1.67 20 1.34 20 1 20 C0.67 13.4 0.34 6.8 0 0 Z " fill="#1F1D1B" transform="translate(55,851)"/>
<path d="M0 0 C0.928125 0.2784375 0.928125 0.2784375 1.875 0.5625 C4.04160178 1.23686176 4.04160178 1.23686176 6 0 C6 1.65 6 3.3 6 5 C5.34 5 4.68 5 4 5 C3.67 5.66 3.34 6.32 3 7 C2.01 4.69 1.02 2.38 0 0 Z " fill="#1A1514" transform="translate(182,708)"/>
<path d="M0 0 C0.99 0.495 0.99 0.495 2 1 C2.86159454 4.23097953 3.30597523 6.22486274 2.0625 9.375 C1.711875 9.91125 1.36125 10.4475 1 11 C-0.17571451 7.32589215 -0.07366746 3.83070817 0 0 Z " fill="#2A2624" transform="translate(124,171)"/>
<path d="M0 0 C3.63 0 7.26 0 11 0 C11 0.33 11 0.66 11 1 C7.7 1.66 4.4 2.32 1 3 C0.67 2.01 0.34 1.02 0 0 Z " fill="#211E1B" transform="translate(74,726)"/>
<path d="M0 0 C1 4 1 4 1 4 Z " fill="#FFFFFF" transform="translate(98,55)"/>
</svg>
