<svg xmlns="http://www.w3.org/2000/svg" width="219" height="1068" viewBox="0 0 219 1068">
<g>
<path d="M 24.50 1066.67 C17.82,1064.06 14.54,1060.04 13.10,1052.69 C11.42,1044.14 6.29,943.54 4.46,883.50 C4.16,873.60 3.22,849.08 2.37,829.00 C0.14,776.16 0.15,736.86 2.39,720.50 C7.19,685.51 17.16,659.89 38.97,626.50 C64.30,587.72 72.00,570.01 77.68,537.50 C79.31,528.18 79.45,509.73 79.70,266.00 C79.85,122.18 80.21,3.49 80.51,2.25 C80.99,0.19 81.61,-0.00 87.93,0.00 L 94.83 0.00 L 94.95 80.25 C95.02,124.39 95.33,226.43 95.64,307.00 C95.95,387.58 96.23,466.55 96.28,482.50 C96.36,513.93 95.34,527.41 91.41,547.00 C86.90,569.51 73.88,603.18 66.18,612.25 C65.16,613.45 65.07,614.00 65.89,614.00 C66.54,614.00 68.87,612.09 71.06,609.75 C87.79,591.90 97.56,562.21 101.08,518.50 C102.31,503.29 102.14,485.14 100.04,410.00 C99.28,382.66 99.25,242.78 99.97,21.00 C99.98,18.52 99.73,12.79 99.41,8.25 L 98.84 -0.00 L 104.42 -0.00 L 110.00 0.00 L 110.00 27.25 C110.01,251.77 111.09,538.66 111.99,553.00 C113.70,580.46 117.46,600.98 122.21,608.80 C124.39,612.37 126.32,612.57 126.81,609.27 C127.07,607.50 127.79,607.95 131.80,612.35 C134.38,615.18 141.00,622.23 146.52,628.02 C163.55,645.88 169.62,653.58 174.48,663.51 C180.86,676.53 184.89,693.00 189.43,724.50 C189.85,727.46 189.84,727.45 188.34,724.00 C187.50,722.08 185.51,717.35 183.91,713.50 C180.46,705.21 175.00,698.52 167.76,693.72 C156.68,686.38 131.39,682.77 117.03,686.49 C111.93,687.81 110.70,687.81 106.38,686.50 C99.88,684.53 81.03,684.56 68.93,686.56 C58.04,688.36 48.40,692.55 44.50,697.18 C41.26,701.04 37.00,709.42 33.93,718.00 C32.66,721.58 31.36,724.72 31.06,725.00 C30.75,725.28 30.45,726.62 30.39,728.00 C30.33,729.38 29.52,734.55 28.59,739.50 C26.52,750.56 25.95,767.30 27.06,784.50 C28.76,810.77 32.08,933.21 32.66,991.50 C33.00,1024.50 33.44,1051.69 33.65,1051.93 C33.86,1052.17 34.54,1051.86 35.15,1051.25 C35.88,1050.52 36.39,1042.29 36.64,1027.32 C36.85,1014.77 37.47,979.75 38.02,949.50 C38.57,919.25 39.03,886.85 39.05,877.50 C39.11,848.16 44.05,778.60 47.15,763.51 C50.22,748.60 54.50,738.80 60.65,732.64 C65.15,728.13 66.71,727.43 74.24,726.49 C84.60,725.19 93.71,730.27 97.56,739.48 C100.39,746.26 101.54,762.61 103.44,823.50 C105.17,878.44 107.82,998.87 107.98,1029.01 C108.04,1041.65 108.49,1048.75 109.41,1051.41 L 110.75 1055.31 L 112.56 1052.55 C114.45,1049.67 114.83,1044.15 116.43,996.50 C116.76,986.60 117.45,965.90 117.97,950.50 C118.49,935.10 119.17,911.25 119.49,897.50 C121.54,809.81 124.52,765.78 129.61,748.04 C132.36,738.44 137.22,730.56 141.92,728.04 C144.68,726.56 154.19,726.50 156.88,727.94 C161.46,730.39 169.27,743.78 171.37,752.79 C172.84,759.07 174.57,763.00 175.88,763.00 C177.12,763.00 179.79,759.75 180.80,757.00 L 181.71 754.54 L 183.43 757.87 C186.31,763.43 186.94,770.09 188.03,806.50 C188.61,825.75 189.46,852.97 189.91,867.00 C190.37,881.03 190.81,928.26 190.88,971.96 C190.96,1015.67 191.36,1051.76 191.77,1052.17 C192.18,1052.58 193.18,1052.50 194.00,1052.00 C195.20,1051.26 195.62,1047.06 196.17,1030.29 C196.54,1018.86 197.09,1003.20 197.40,995.50 C197.70,987.80 198.18,964.40 198.48,943.50 C199.19,892.12 200.04,850.87 200.53,843.00 C205.47,763.44 204.78,725.12 197.93,700.05 C192.31,679.49 177.61,650.16 156.55,617.50 C139.31,590.76 130.25,566.75 125.55,535.30 C122.38,514.08 121.90,492.91 122.90,418.68 C123.44,378.98 123.79,272.70 123.69,182.50 C123.59,92.30 123.64,14.34 123.82,9.25 L 124.14 -0.00 L 131.55 -0.00 L 138.96 0.00 L 139.28 265.75 L 139.60 531.50 L 141.76 542.61 C146.41,566.52 153.89,584.14 170.58,610.50 C196.15,650.87 204.18,667.79 211.42,696.50 C217.61,721.09 219.32,746.33 217.87,792.00 C217.30,809.88 216.81,826.08 216.78,828.00 C216.75,829.92 216.35,842.08 215.90,855.00 C215.45,867.92 214.83,885.70 214.53,894.50 C213.36,928.67 212.01,961.79 211.55,968.00 C211.28,971.58 210.78,982.15 210.44,991.50 C210.10,1000.85 209.24,1018.72 208.52,1031.22 C207.41,1050.52 206.90,1054.57 205.12,1058.22 C199.25,1070.24 182.60,1070.81 176.18,1059.21 C174.00,1055.27 173.76,1052.93 171.95,1018.27 C168.53,952.86 167.96,942.39 164.46,882.00 C159.81,801.73 158.03,776.21 156.86,773.11 C154.29,766.35 148.45,764.07 144.08,768.14 C139.61,772.31 139.24,774.92 138.06,810.50 C137.11,839.48 135.02,888.63 133.52,917.50 C133.29,921.90 132.83,931.12 132.51,938.00 C132.18,944.88 131.72,953.42 131.48,957.00 C131.24,960.58 130.81,968.45 130.52,974.50 C129.35,998.95 127.03,1041.98 126.48,1049.31 C125.73,1059.23 121.87,1064.76 114.08,1067.10 C106.99,1069.22 98.57,1064.88 95.45,1057.50 C94.76,1055.85 93.92,1050.00 93.59,1044.50 C93.26,1039.00 92.31,1023.70 91.49,1010.50 C90.12,988.76 86.92,933.62 85.48,907.00 C85.17,901.22 84.72,893.80 84.49,890.50 C84.26,887.20 83.81,880.22 83.50,875.00 C83.18,869.78 82.73,862.35 82.49,858.50 C82.25,854.65 81.81,846.78 81.51,841.00 C80.29,817.28 77.96,780.22 77.44,776.25 C76.31,767.66 68.85,763.15 63.91,768.09 C59.18,772.82 59.08,773.79 56.49,839.50 C56.21,846.65 55.76,857.22 55.50,863.00 C55.23,868.78 54.76,881.15 54.44,890.50 C54.13,899.85 53.47,917.40 52.98,929.50 C52.49,941.60 51.83,959.38 51.52,969.00 C50.36,1005.36 47.90,1051.64 46.93,1055.26 C45.64,1060.06 40.11,1065.60 35.27,1066.94 C30.61,1068.24 28.35,1068.18 24.50,1066.67 ZM 23.83 885.50 C22.52,798.86 22.51,725.09 23.83,715.00 C24.51,709.78 25.22,704.11 25.42,702.41 C25.61,700.71 26.10,697.78 26.49,695.91 C27.65,690.44 25.52,693.64 22.65,701.69 C17.00,717.55 16.66,722.07 17.45,772.50 C18.86,863.04 19.40,885.59 21.05,923.50 C23.42,978.10 24.93,957.52 23.83,885.50 Z" fill="rgba(8,8,7,1)"/>
</g>
</svg>