<svg xmlns="http://www.w3.org/2000/svg" width="1502" height="698" viewBox="0 0 1502 698">
<g>
<path d="M 1326.88 563.50 C1329.08,564.69 1342.50,564.93 1411.30,564.96 C1415.31,564.96 1419.13,564.96 1422.78,564.97 C1488.57,565.01 1496.83,565.02 1499.35,561.22 C1499.85,560.46 1500.12,559.55 1500.58,558.47 C1501.34,556.65 1501.81,551.95 1502.00,546.47 L 1502.00 698.00 L 0.00 698.00 L 0.00 0.00 L 1502.00 0.00 L 1502.00 534.56 C1501.79,528.51 1501.26,523.25 1500.42,521.48 C1499.91,520.39 1499.51,519.48 1498.92,518.73 C1495.99,515.00 1488.30,515.00 1437.65,515.00 L 1434.11 515.00 L 1376.03 515.00 L 1375.77 393.75 C1375.52,282.53 1375.36,272.25 1373.82,269.44 C1371.12,264.51 1368.72,264.00 1348.40,264.00 C1327.53,264.00 1324.87,264.67 1322.42,270.53 C1321.22,273.42 1321.00,295.29 1321.00,414.57 C1321.00,422.97 1321.00,430.89 1321.00,438.35 C1320.98,551.40 1320.98,560.03 1324.87,562.49 C1325.45,562.85 1326.12,563.08 1326.88,563.50 ZM 417.34 567.58 C427.54,569.53 452.22,568.77 461.50,566.22 C491.41,558.04 514.03,537.26 530.40,502.93 C544.09,474.21 549.89,443.51 548.69,406.00 C546.99,352.56 533.11,316.68 502.83,287.44 C488.12,273.24 473.18,265.10 455.11,261.45 C443.56,259.13 420.57,259.86 410.54,262.88 C393.86,267.91 380.85,275.98 366.97,289.93 C343.80,313.20 330.65,342.23 325.49,381.50 C323.61,395.83 323.34,429.21 324.99,443.00 C327.61,464.81 334.16,487.39 342.97,504.95 C361.05,540.97 385.44,561.51 417.34,567.58 ZM 594.42 563.11 C597.14,564.77 599.66,564.99 615.80,565.00 C630.21,565.00 634.72,564.68 637.03,563.48 C638.05,562.96 638.89,562.52 639.59,561.92 C643.00,559.00 643.00,552.10 643.00,511.26 L 643.00 465.95 L 659.73 466.23 L 676.46 466.50 L 701.48 509.59 C715.24,533.29 727.71,554.50 729.18,556.72 C734.09,564.11 737.50,565.00 760.77,565.00 C774.03,565.00 781.78,564.60 783.48,563.83 C786.52,562.44 787.59,559.10 786.21,555.27 C785.67,553.75 772.35,530.48 756.62,503.58 C740.88,476.67 728.12,454.59 728.26,454.50 C759.85,434.92 775.66,410.23 778.97,375.33 C781.37,350.03 774.93,324.21 761.57,305.57 C748.50,287.33 728.10,273.47 705.12,267.19 L 695.50 264.57 L 645.82 264.23 L 596.15 263.90 L 592.82 266.87 L 589.50 269.84 L 589.24 412.67 C589.04,520.92 589.26,556.19 590.16,558.37 C590.81,559.95 592.73,562.08 594.42,563.11 ZM 1082.39 564.03 C1083.55,564.50 1121.73,564.80 1167.23,564.70 L 1249.96 564.50 L 1252.73 561.73 L 1255.50 558.96 L 1255.81 541.71 C1256.00,531.41 1255.71,523.36 1255.09,521.73 C1254.52,520.23 1252.58,518.10 1250.77,517.00 C1247.60,515.07 1245.70,515.01 1188.75,515.00 L 1130.00 515.00 L 1130.00 439.00 L 1167.75 438.94 C1208.51,438.88 1210.73,438.63 1214.41,433.68 C1216.30,431.14 1216.53,429.28 1216.78,414.68 C1217.03,400.76 1216.82,398.01 1215.28,395.00 C1211.77,388.10 1211.11,388.00 1168.25,388.00 L 1130.00 388.00 L 1130.00 314.00 L 1185.03 314.00 C1245.40,314.00 1245.40,314.00 1248.43,308.13 C1249.68,305.72 1250.00,301.56 1250.00,287.95 L 1250.00 270.80 L 1243.20 264.00 L 1083.14 264.00 L 1079.57 267.37 L 1076.00 270.74 L 1076.00 557.73 L 1078.14 560.45 C1079.31,561.94 1081.23,563.55 1082.39,564.03 ZM 885.25 568.00 C894.45,569.29 925.28,568.39 933.00,566.60 C955.46,561.41 972.30,551.96 987.11,536.27 C1000.53,522.04 1009.07,507.01 1013.16,490.38 C1016.21,478.00 1016.22,456.96 1013.17,445.71 C1008.96,430.16 998.81,414.79 985.87,404.37 C976.33,396.70 968.75,392.39 938.80,377.62 C910.19,363.51 903.67,359.25 897.55,350.64 C893.33,344.70 891.58,338.38 892.28,331.60 C893.80,316.87 904.61,309.00 921.57,310.28 C930.32,310.95 934.88,313.16 941.35,319.90 C946.67,325.44 950.61,326.86 955.49,325.00 C960.73,323.01 983.83,307.99 986.46,304.87 C991.77,298.56 989.28,291.21 978.03,279.97 C969.56,271.51 960.97,266.68 947.50,262.80 C940.35,260.75 937.42,260.50 920.00,260.53 C901.70,260.56 900.03,260.72 892.83,263.15 C881.67,266.92 872.77,272.28 864.25,280.36 C851.95,292.05 844.84,304.21 841.51,319.29 C839.12,330.06 839.86,350.53 843.00,360.50 C848.35,377.53 858.62,391.51 874.36,403.20 C879.23,406.81 892.13,414.00 908.32,422.12 C922.68,429.32 936.93,436.91 939.98,438.99 C947.61,444.17 953.34,450.31 957.22,457.46 C960.27,463.08 960.50,464.16 960.50,473.00 C960.50,481.56 960.19,483.15 957.40,489.00 C951.85,500.65 940.99,510.41 927.83,515.56 C919.58,518.80 905.37,519.67 894.07,517.62 C881.33,515.32 874.51,511.49 865.47,501.57 C854.31,489.31 853.43,489.34 832.23,502.77 C818.59,511.41 815.99,514.12 816.01,519.70 C816.03,526.84 830.02,543.58 843.34,552.40 C855.58,560.51 869.94,565.85 885.25,568.00 ZM 445.54 517.45 C430.60,521.34 417.75,516.80 404.75,503.06 C396.14,493.96 391.87,487.04 387.25,474.77 C380.16,455.89 377.43,435.40 378.28,407.59 C379.03,383.03 381.68,368.71 388.74,351.00 C399.68,323.57 418.12,308.57 438.80,310.30 C448.04,311.07 451.92,312.40 459.20,317.29 C473.79,327.10 485.92,349.55 491.12,376.36 C495.38,398.36 495.39,431.66 491.14,453.54 C484.49,487.76 467.37,511.76 445.54,517.45 ZM 686.39 415.02 C683.15,415.55 672.06,415.99 661.75,415.99 L 643.00 416.00 L 643.00 314.00 L 664.25 314.01 C686.72,314.02 691.60,314.70 699.95,318.97 C706.31,322.22 715.26,331.58 718.90,338.80 C734.82,370.35 717.97,409.85 686.39,415.02 Z" fill="rgba(255,254,254,1)"/>
<path d="M 417.34 567.58 C385.44,561.51 361.05,540.97 342.97,504.95 C334.16,487.39 327.61,464.81 324.99,443.00 C323.34,429.21 323.61,395.83 325.49,381.50 C330.65,342.23 343.80,313.20 366.97,289.93 C380.85,275.98 393.86,267.91 410.54,262.88 C420.57,259.86 443.56,259.13 455.11,261.45 C473.18,265.10 488.12,273.24 502.83,287.44 C533.11,316.68 546.99,352.56 548.69,406.00 C549.89,443.51 544.09,474.21 530.40,502.93 C514.03,537.26 491.41,558.04 461.50,566.22 C452.22,568.77 427.54,569.53 417.34,567.58 ZM 445.54 517.45 C467.37,511.76 484.49,487.76 491.14,453.54 C495.39,431.66 495.38,398.36 491.12,376.36 C485.92,349.55 473.79,327.10 459.20,317.29 C451.92,312.40 448.04,311.07 438.80,310.30 C418.12,308.57 399.68,323.57 388.74,351.00 C381.68,368.71 379.03,383.03 378.28,407.59 C377.43,435.40 380.16,455.89 387.25,474.77 C391.87,487.04 396.14,493.96 404.75,503.06 C417.75,516.80 430.60,521.34 445.54,517.45 ZM 885.25 568.00 C869.94,565.85 855.58,560.51 843.34,552.40 C830.02,543.58 816.03,526.84 816.01,519.70 C815.99,514.12 818.59,511.41 832.23,502.77 C853.43,489.34 854.31,489.31 865.47,501.57 C874.51,511.49 881.33,515.32 894.07,517.62 C905.37,519.67 919.58,518.80 927.83,515.56 C940.99,510.41 951.85,500.65 957.40,489.00 C960.19,483.15 960.50,481.56 960.50,473.00 C960.50,464.16 960.27,463.08 957.22,457.46 C953.34,450.31 947.61,444.17 939.98,438.99 C936.93,436.91 922.68,429.32 908.32,422.12 C892.13,414.00 879.23,406.81 874.36,403.20 C858.62,391.51 848.35,377.53 843.00,360.50 C839.86,350.53 839.12,330.06 841.51,319.29 C844.84,304.21 851.95,292.05 864.25,280.36 C872.77,272.28 881.67,266.92 892.83,263.15 C900.03,260.72 901.70,260.56 920.00,260.53 C937.42,260.50 940.35,260.75 947.50,262.80 C960.97,266.68 969.56,271.51 978.03,279.97 C989.28,291.21 991.77,298.56 986.46,304.87 C983.83,307.99 960.73,323.01 955.49,325.00 C950.61,326.86 946.67,325.44 941.35,319.90 C934.88,313.16 930.32,310.95 921.57,310.28 C904.61,309.00 893.80,316.87 892.28,331.60 C891.58,338.38 893.33,344.70 897.55,350.64 C903.67,359.25 910.19,363.51 938.80,377.62 C968.75,392.39 976.33,396.70 985.87,404.37 C998.81,414.79 1008.96,430.16 1013.17,445.71 C1016.22,456.96 1016.21,478.00 1013.16,490.38 C1009.07,507.01 1000.53,522.04 987.11,536.27 C972.30,551.96 955.46,561.41 933.00,566.60 C925.28,568.39 894.45,569.29 885.25,568.00 ZM 594.42 563.11 C592.73,562.08 590.81,559.95 590.16,558.37 C589.26,556.19 589.04,520.92 589.24,412.67 L 589.50 269.84 L 592.82 266.87 L 596.15 263.90 L 645.82 264.23 L 695.50 264.57 L 705.12 267.19 C728.10,273.47 748.50,287.33 761.57,305.57 C774.93,324.21 781.37,350.03 778.97,375.33 C775.66,410.23 759.85,434.92 728.26,454.50 C728.12,454.59 740.88,476.67 756.62,503.58 C772.35,530.48 785.67,553.75 786.21,555.27 C787.59,559.10 786.52,562.44 783.48,563.83 C781.78,564.60 774.03,565.00 760.77,565.00 C737.50,565.00 734.09,564.11 729.18,556.72 C727.71,554.50 715.24,533.29 701.48,509.59 L 676.46 466.50 L 659.73 466.23 L 643.00 465.95 L 643.00 511.03 C643.00,560.47 643.01,560.39 637.03,563.48 C634.72,564.68 630.21,565.00 615.80,565.00 C599.66,564.99 597.14,564.77 594.42,563.11 ZM 686.39 415.02 C717.97,409.85 734.82,370.35 718.90,338.80 C715.26,331.58 706.31,322.22 699.95,318.97 C691.60,314.70 686.72,314.02 664.25,314.01 L 643.00 314.00 L 643.00 365.00 L 643.00 416.00 L 661.75 415.99 C672.06,415.99 683.15,415.55 686.39,415.02 ZM 1082.39 564.03 C1081.23,563.55 1079.31,561.94 1078.14,560.45 L 1076.00 557.73 L 1076.00 414.23 L 1076.00 270.74 L 1079.57 267.37 L 1083.14 264.00 L 1163.17 264.00 L 1243.20 264.00 L 1246.60 267.40 L 1250.00 270.80 L 1250.00 287.95 C1250.00,301.56 1249.68,305.72 1248.43,308.13 C1245.40,314.00 1245.40,314.00 1185.03,314.00 L 1130.00 314.00 L 1130.00 351.00 L 1130.00 388.00 L 1168.25 388.00 C1211.11,388.00 1211.77,388.10 1215.28,395.00 C1216.82,398.01 1217.03,400.76 1216.78,414.68 C1216.53,429.28 1216.30,431.14 1214.41,433.68 C1210.73,438.63 1208.51,438.88 1167.75,438.94 L 1130.00 439.00 L 1130.00 477.00 L 1130.00 515.00 L 1188.75 515.00 C1245.70,515.01 1247.60,515.07 1250.77,517.00 C1252.58,518.10 1254.52,520.23 1255.09,521.73 C1255.71,523.36 1256.00,531.41 1255.81,541.71 L 1255.50 558.96 L 1252.73 561.73 L 1249.96 564.50 L 1167.23 564.70 C1121.73,564.80 1083.55,564.50 1082.39,564.03 ZM 1326.88 563.50 C1320.64,560.11 1321.00,569.15 1321.00,414.57 C1321.00,295.29 1321.22,273.42 1322.42,270.53 C1324.87,264.67 1327.53,264.00 1348.40,264.00 C1368.72,264.00 1371.12,264.51 1373.82,269.44 C1375.36,272.25 1375.52,282.53 1375.77,393.75 L 1376.03 515.00 L 1434.11 515.00 C1498.57,515.00 1497.29,514.87 1500.42,521.48 C1502.57,526.01 1502.69,553.42 1500.58,558.47 C1497.72,565.32 1502.03,565.00 1411.30,564.96 C1342.50,564.93 1329.08,564.69 1326.88,563.50 Z" fill="rgba(253,253,252,1)"/>
</g>
</svg>